<!DOCTYPE svg PUBLIC "-//W3C//DTD SVG 1.1//EN" "https://www.w3.org/Graphics/SVG/1.1/DTD/svg11.dtd">
<svg xmlns="http://www.w3.org/2000/svg" id="sfn-svg" class="sfn-workflow-graph" width="453" height="570">
    
    
<g transform="translate(12,19.899999618530273)"><g class="nodes"><g class="node-container" transform="translate(176.29583549499512,18.524999618530273)"><g class="node anchor"><circle class="shape" x="-16.424999237060547" y="-8.524999618530273" r="26.424999237060547"/><text class="label"><tspan xml:space="preserve" text-anchor="middle" alignment-baseline="central">Start</tspan></text></g></g><g class="node-container" transform="translate(221.1500015258789,514.9249935150146)"><g class="node anchor"><circle class="shape" x="-12.725000381469727" y="-8.524999618530273" r="22.725000381469727"/><text class="label"><tspan xml:space="preserve" text-anchor="middle" alignment-baseline="central">End</tspan></text></g></g><g class="node-container" transform="translate(176.29583549499512,80.57499885559082)"><g class="node state Task NotYetStarted"><rect class="shape" rx="5" ry="5" x="-61.54999923706055" y="-18.524999618530273" width="123.0999984741211" height="37.04999923706055"/><text class="label"><tspan xml:space="preserve" text-anchor="middle" alignment-baseline="central">Queries-Decider</tspan></text></g></g><g class="node-container" transform="translate(176.29583549499512,142.62499809265137)"><g class="node state Choice NotYetStarted"><rect class="shape" rx="5" ry="5" x="-112.94166564941406" y="-18.524999618530273" width="225.88333129882812" height="37.04999923706055"/><text class="label"><tspan xml:space="preserve" text-anchor="middle" alignment-baseline="central">NumberQueriesAndPagesChoice</tspan></text></g></g><g class="node-container" transform="translate(196.29999923706055,328.774995803833)"><g class="node state Task NotYetStarted"><rect class="shape" rx="5" ry="5" x="-54.70833206176758" y="-18.524999618530273" width="109.41666412353516" height="37.04999923706055"/><text class="label"><tspan xml:space="preserve" text-anchor="middle" alignment-baseline="central">TextractAsync</tspan></text></g></g><g class="node-container" transform="translate(338.6000003814697,452.8749942779541)"><g class="node state Fail NotYetStarted"><rect class="shape" rx="5" ry="5" x="-90.39167022705078" y="-18.524999618530273" width="180.78334045410156" height="37.04999923706055"/><text class="label"><tspan xml:space="preserve" text-anchor="middle" alignment-baseline="central">TooManyQueriesOrPages</tspan></text></g></g><g class="node-container" transform="translate(51.108333587646484,204.6749973297119)"><g class="node state Task NotYetStarted"><rect class="shape" rx="5" ry="5" x="-45.83333206176758" y="-18.524999618530273" width="91.66666412353516" height="37.04999923706055"/><text class="label"><tspan xml:space="preserve" text-anchor="middle" alignment-baseline="central">Randomize</tspan></text></g></g><g class="node-container" transform="translate(51.108333587646484,266.72499656677246)"><g class="node state Choice NotYetStarted"><rect class="shape" rx="5" ry="5" x="-31.58333396911621" y="-18.524999618530273" width="63.16666793823242" height="37.04999923706055"/><text class="label"><tspan xml:space="preserve" text-anchor="middle" alignment-baseline="central">Choice</tspan></text></g></g><g class="node-container" transform="translate(51.108333587646484,390.82499504089355)"><g class="node state Task NotYetStarted"><rect class="shape" rx="5" ry="5" x="-51.108333587646484" y="-18.524999618530273" width="102.21666717529297" height="37.04999923706055"/><text class="label"><tspan xml:space="preserve" text-anchor="middle" alignment-baseline="central">TextractSync</tspan></text></g></g><g class="node-container" transform="translate(123.70416641235352,452.8749942779541)"><g class="node state Task NotYetStarted"><rect class="shape" rx="5" ry="5" x="-64.5" y="-18.524999618530273" width="129" height="37.04999923706055"/><text class="label"><tspan xml:space="preserve" text-anchor="middle" alignment-baseline="central">GenerateCsvTask</tspan></text></g></g><g class="node-container" transform="translate(196.29999923706055,390.82499504089355)"><g class="node state Task NotYetStarted"><rect class="shape" rx="5" ry="5" x="-54.08333206176758" y="-18.524999618530273" width="108.16666412353516" height="37.04999923706055"/><text class="label"><tspan xml:space="preserve" text-anchor="middle" alignment-baseline="central">AsyncToJSON</tspan></text></g></g></g><g class="edges"><g class="edge"><path class="path" style="fill: none;" marker-end="url(#arrowhead1)" d="M176.29583549499512,99.0999984741211L176.29583549499512,101.18333180745442C176.29583549499512,103.26666514078775,176.29583549499512,107.43333180745442,176.29583549499512,111.5999984741211C176.29583549499512,115.76666514078775,176.29583549499512,119.93333180745441,176.29583549499512,122.01666514078775L176.29583549499512,124.0999984741211"/><defs><marker id="arrowhead1" viewBox="0 0 10 10" refX="9" refY="5" markerUnits="strokeWidth" markerWidth="8" markerHeight="6" orient="auto"><path d="M 0 0 L 10 5 L 0 10 z"/></marker></defs></g><g class="edge"><path class="path" style="fill: none;" marker-end="url(#arrowhead2)" d="M176.29583549499512,44.94999885559082L176.29583549499512,45.71666558583577C176.29583549499512,46.48333231608073,176.29583549499512,48.01666577657063,176.29583549499512,50.866665840148926C176.29583549499512,53.71666590372721,176.29583549499512,57.883332570393875,176.29583549499512,59.966665903727204L176.29583549499512,62.04999923706055"/><defs><marker id="arrowhead2" viewBox="0 0 10 10" refX="9" refY="5" markerUnits="strokeWidth" markerWidth="8" markerHeight="6" orient="auto"><path d="M 0 0 L 10 5 L 0 10 z"/></marker></defs></g><g class="edge"><path class="path" style="fill: none;" marker-end="url(#arrowhead3)" d="M169.02615202480712,161.14999771118164L168.20859876121216,163.23333104451496C167.39104549761717,165.3166643778483,165.75593897042722,169.48333104451496,164.9383857068323,176.73749764760333C164.1208324432373,183.9916642506917,164.1208324432373,194.33333079020179,164.1208324432373,204.67499732971189C164.1208324432373,215.016663869222,164.1208324432373,225.3583304087321,164.1208324432373,235.69999694824216C164.1208324432373,246.04166348775226,164.1208324432373,256.38333002726233,164.1208324432373,266.72499656677246C164.1208324432373,277.06666310628253,164.1208324432373,287.4083296457926,166.28166827385,294.662496248881C168.44250410446267,301.91666285196936,172.76417576568804,306.08332951863605,174.92501159630072,308.1666628519694L177.0858474269134,310.24999618530273"/><defs><marker id="arrowhead3" viewBox="0 0 10 10" refX="9" refY="5" markerUnits="strokeWidth" markerWidth="8" markerHeight="6" orient="auto"><path d="M 0 0 L 10 5 L 0 10 z"/></marker></defs></g><g class="edge"><path class="path" style="fill: none;" marker-end="url(#arrowhead4)" d="M273.20750768118967,161.14999771118164L284.10625646456964,163.23333104451496C295.00500524794967,165.3166643778483,316.80250281470967,169.48333104451496,327.7012515980897,176.73749764760333C338.6000003814697,183.9916642506917,338.6000003814697,194.33333079020179,338.6000003814697,204.67499732971189C338.6000003814697,215.016663869222,338.6000003814697,225.3583304087321,338.6000003814697,235.69999694824216C338.6000003814697,246.04166348775226,338.6000003814697,256.38333002726233,338.6000003814697,266.72499656677246C338.6000003814697,277.06666310628253,338.6000003814697,287.4083296457926,338.6000003814697,297.74999618530273C338.6000003814697,308.0916627248128,338.6000003814697,318.4333292643229,338.6000003814697,328.774995803833C338.6000003814697,339.1166623433431,338.6000003814697,349.45832888285315,338.6000003814697,359.7999954223632C338.6000003814697,370.14166196187335,338.6000003814697,380.4833285013834,338.6000003814697,390.82499504089355C338.6000003814697,401.1666615804036,338.6000003814697,411.5083281199137,338.6000003814697,418.7624947230021C338.6000003814697,426.01666132609046,338.6000003814697,430.18332799275714,338.6000003814697,432.26666132609046L338.6000003814697,434.3499946594238"/><defs><marker id="arrowhead4" viewBox="0 0 10 10" refX="9" refY="5" markerUnits="strokeWidth" markerWidth="8" markerHeight="6" orient="auto"><path d="M 0 0 L 10 5 L 0 10 z"/></marker></defs></g><g class="edge"><path class="path" style="fill: none;" marker-end="url(#arrowhead5)" d="M101.54648969022465,161.14999771118164L93.14013033979496,163.23333104451496C84.73377098936525,165.3166643778483,67.92105228850588,169.48333104451496,59.51469293807617,173.64999771118164C51.108333587646484,177.8166643778483,51.108333587646484,181.98333104451496,51.10833358764648,184.0666643778483L51.108333587646484,186.14999771118164"/><defs><marker id="arrowhead5" viewBox="0 0 10 10" refX="9" refY="5" markerUnits="strokeWidth" markerWidth="8" markerHeight="6" orient="auto"><path d="M 0 0 L 10 5 L 0 10 z"/></marker></defs></g><g class="edge"><path class="path" style="fill: none;" marker-end="url(#arrowhead6)" d="M51.108333587646484,223.1999969482422L51.10833358764648,225.2833302815755C51.108333587646484,227.36666361490884,51.108333587646484,231.5333302815755,51.10833358764648,235.6999969482422C51.108333587646484,239.86666361490884,51.108333587646484,244.0333302815755,51.10833358764648,246.11666361490882L51.108333587646484,248.1999969482422"/><defs><marker id="arrowhead6" viewBox="0 0 10 10" refX="9" refY="5" markerUnits="strokeWidth" markerWidth="8" markerHeight="6" orient="auto"><path d="M 0 0 L 10 5 L 0 10 z"/></marker></defs></g><g class="edge"><path class="path" style="fill: none;" marker-end="url(#arrowhead7)" d="M82.6916675567627,272.3228043805191L106.60208384195963,276.5606696813163C130.51250012715656,280.7985349821136,178.33333269755045,289.27426558370814,200.23903729875886,295.59546421783875C222.14474189996724,301.91666285196936,218.13531853199015,306.08332951863605,216.1306068480016,308.1666628519694L214.12589516401306,310.24999618530273"/><defs><marker id="arrowhead7" viewBox="0 0 10 10" refX="9" refY="5" markerUnits="strokeWidth" markerWidth="8" markerHeight="6" orient="auto"><path d="M 0 0 L 10 5 L 0 10 z"/></marker></defs></g><g class="edge"><path class="path" style="fill: none;" marker-end="url(#arrowhead8)" d="M51.108333587646484,285.24999618530273L51.10833358764648,287.33332951863605C51.108333587646484,289.41666285196936,51.108333587646484,293.58332951863605,51.10833358764648,300.8374961217244C51.108333587646484,308.0916627248128,51.108333587646484,318.4333292643229,51.10833358764648,328.774995803833C51.108333587646484,339.1166623433431,51.108333587646484,349.45832888285315,51.10833358764648,356.71249548594153C51.108333587646484,363.9666620890299,51.108333587646484,368.1333287556966,51.10833358764648,370.21666208902997L51.108333587646484,372.2999954223633"/><defs><marker id="arrowhead8" viewBox="0 0 10 10" refX="9" refY="5" markerUnits="strokeWidth" markerWidth="8" markerHeight="6" orient="auto"><path d="M 0 0 L 10 5 L 0 10 z"/></marker></defs></g><g class="edge"><path class="path" style="fill: none;" marker-end="url(#arrowhead9)" d="M51.108333587646484,409.3499946594238L51.10833358764648,411.4333279927571C51.108333587646484,413.51666132609046,51.108333587646484,417.68332799275714,55.98315454637018,421.84999465942377C60.85797550509389,426.01666132609046,70.6076174225413,430.18332799275714,75.482438381265,432.26666132609046L80.3572593399887,434.3499946594238"/><defs><marker id="arrowhead9" viewBox="0 0 10 10" refX="9" refY="5" markerUnits="strokeWidth" markerWidth="8" markerHeight="6" orient="auto"><path d="M 0 0 L 10 5 L 0 10 z"/></marker></defs></g><g class="edge"><path class="path" style="fill: none;" marker-end="url(#arrowhead10)" d="M123.70416641235352,471.3999938964844L123.70416641235352,473.4833272298177C123.70416641235352,475.566660563151,123.70416641235352,479.7333272298177,136.33614127531422,485.838453950709C148.96811613827495,491.9435806716003,174.2320658641964,499.98716744671617,186.8640407271571,504.00896083427415L199.49601559011785,508.0307542218322"/><defs><marker id="arrowhead10" viewBox="0 0 10 10" refX="9" refY="5" markerUnits="strokeWidth" markerWidth="8" markerHeight="6" orient="auto"><path d="M 0 0 L 10 5 L 0 10 z"/></marker></defs></g><g class="edge"><path class="path" style="fill: none;" marker-end="url(#arrowhead11)" d="M196.29999923706055,409.3499946594238L196.2999992370605,411.4333279927571C196.29999923706052,413.51666132609046,196.29999923706052,417.68332799275714,191.4251782783368,421.84999465942377C186.5503573196131,426.01666132609046,176.80071540216574,430.18332799275714,171.92589444344202,432.26666132609046L167.05107348471833,434.3499946594238"/><defs><marker id="arrowhead11" viewBox="0 0 10 10" refX="9" refY="5" markerUnits="strokeWidth" markerWidth="8" markerHeight="6" orient="auto"><path d="M 0 0 L 10 5 L 0 10 z"/></marker></defs></g><g class="edge"><path class="path" style="fill: none;" marker-end="url(#arrowhead12)" d="M196.29999923706055,347.2999954223633L196.2999992370605,349.3833287556966C196.29999923706052,351.4666620890299,196.29999923706052,355.6333287556966,196.2999992370605,359.7999954223633C196.29999923706052,363.9666620890299,196.29999923706052,368.1333287556966,196.2999992370605,370.21666208902997L196.29999923706055,372.2999954223633"/><defs><marker id="arrowhead12" viewBox="0 0 10 10" refX="9" refY="5" markerUnits="strokeWidth" markerWidth="8" markerHeight="6" orient="auto"><path d="M 0 0 L 10 5 L 0 10 z"/></marker></defs></g><g class="edge"><path class="path" style="fill: none;" marker-end="url(#arrowhead13)" d="M338.6000003814697,471.3999938964844L338.6000003814697,473.4833272298177C338.6000003814697,475.566660563151,338.6000003814697,479.7333272298177,322.68689525430307,486.02018619372177C306.7737901271364,492.3070451576258,274.9475798728031,500.7140964187672,259.0344747456365,504.917622049338L243.12136961846983,509.1211476799087"/><defs><marker id="arrowhead13" viewBox="0 0 10 10" refX="9" refY="5" markerUnits="strokeWidth" markerWidth="8" markerHeight="6" orient="auto"><path d="M 0 0 L 10 5 L 0 10 z"/></marker></defs></g></g></g><style xmlns="http://www.w3.org/1999/xhtml">.node &gt; .shape {stroke: #555555;stroke-width: 0.6px;fill: #FFFFFF;} path {stroke: #555;background-color: #555;stroke-width: 1px;} .node.state.NotYetStarted &gt; .shape,.node.state.Container &gt; .shape {stroke-dasharray: 5 2;} .node.state.Failed &gt; .shape,rect.legend.Failed {fill: #DE322F;} .node.state.CaughtError &gt; .shape,rect.legend.CaughtError {fill: #FFA500;} .node.state.Succeeded &gt; .shape,rect.legend.Succeeded {fill: #2BD62E;} .node.state.InProgress &gt; .shape,rect.legend.InProgress {fill: #53c9ed;} .node.state.Cancelled &gt; .shape,rect.legend.Cancelled {fill: #dddddd;} .node.anchor &gt; .shape {fill: #FFDA75;} .node.state.hovered:not(.selected):not(.NotYetStarted) &gt; .shape,.node.selected &gt; .shape {stroke: #555555;stroke-width: 2px;} .node.state.Container.Failed &gt; .shape {fill: #EE9592;} .node.state.Container.CaughtError &gt; .shape {fill: #FFD27F;} .node.state.Container.Succeeded &gt; .shape {fill: #91EA9A;} .node.state.Container.InProgress &gt; .shape {fill :#A9E4F7;} .node.state.Container.Cancelled &gt; .shape {fill: #EEEEEE;} marker {fill: #555555;} .node.anchor,.node.state.NotYetStarted {cursor: default;} .node.state {cursor: pointer;} tspan .label {font-weight: normal;font-size: 12px;text-shadow: none;} </style></svg>