<!DOCTYPE svg PUBLIC "-//W3C//DTD SVG 1.1//EN" "https://www.w3.org/Graphics/SVG/1.1/DTD/svg11.dtd">
<svg xmlns="http://www.w3.org/2000/svg" id="sfn-svg" class="sfn-workflow-graph" width="428" height="871">
    
    
<g transform="translate(14.5,19.875)"><g class="nodes"><g class="node-container" transform="translate(204.13125610351562,19)"><g class="node anchor"><circle class="shape" x="-16.875" y="-9" r="26.875"/><text class="label"><tspan xml:space="preserve" text-anchor="middle" alignment-baseline="central">Start</tspan></text></g></g><g class="node-container" transform="translate(204.13125610351562,815)"><g class="node anchor"><circle class="shape" x="-13.175000190734863" y="-9" r="23.175000190734863"/><text class="label"><tspan xml:space="preserve" text-anchor="middle" alignment-baseline="central">End</tspan></text></g></g><g class="node-container" transform="translate(204.13125610351562,82)"><g class="node state Task NotYetStarted"><rect class="shape" rx="5" ry="5" x="-124.91666412353516" y="-19" width="249.8333282470703" height="38"/><text class="label"><tspan xml:space="preserve" text-anchor="middle" alignment-baseline="central">DocumentSplitterWorkflow-Decider</tspan></text></g></g><g class="node-container" transform="translate(204.13125610351562,145)"><g class="node state Task NotYetStarted"><rect class="shape" rx="5" ry="5" x="-67.54166793823242" y="-19" width="135.08333587646484" height="38"/><text class="label"><tspan xml:space="preserve" text-anchor="middle" alignment-baseline="central">DocumentSplitter</tspan></text></g></g><g class="node-container" transform="translate(204.13125610351562,480)"><g class="node state Map NotYetStarted Container" transform="translate(-196.63125610351562,-291)"><rect class="shape" rx="5" ry="5" x="-10" y="-10" width="391.26251220703125" height="580"/><rect class="shape" rx="5" ry="5" x="-5" y="-5" width="392.26251220703125" height="581"/><rect class="shape" rx="5" ry="5" x="0" y="0" width="393.26251220703125" height="582"/><g class="branches" transform="translate(20,20)"><g class="branch" transform="translate(0,0)"><g class="nodes"><g class="node-container" transform="translate(123.5999984741211,19)"><g class="node state Task NotYetStarted"><rect class="shape" rx="5" ry="5" x="-65.54166793823242" y="-19" width="131.08333587646484" height="38"/><text class="label"><tspan xml:space="preserve" text-anchor="middle" alignment-baseline="central">TextractSyncOCR</tspan></text></g></g><g class="node-container" transform="translate(123.5999984741211,82)"><g class="node state Task NotYetStarted"><rect class="shape" rx="5" ry="5" x="-53.49166488647461" y="-19" width="106.98332977294922" height="38"/><text class="label"><tspan xml:space="preserve" text-anchor="middle" alignment-baseline="central">GenerateText</tspan></text></g></g><g class="node-container" transform="translate(123.5999984741211,145)"><g class="node state Task NotYetStarted"><rect class="shape" rx="5" ry="5" x="-52.67499923706055" y="-19" width="105.3499984741211" height="38"/><text class="label"><tspan xml:space="preserve" text-anchor="middle" alignment-baseline="central">Classification</tspan></text></g></g><g class="node-container" transform="translate(123.5999984741211,208)"><g class="node state Choice NotYetStarted"><rect class="shape" rx="5" ry="5" x="-56.99166488647461" y="-19" width="113.98332977294922" height="38"/><text class="label"><tspan xml:space="preserve" text-anchor="middle" alignment-baseline="central">RouteDocType</tspan></text></g></g><g class="node-container" transform="translate(123.5999984741211,523)"><g class="node state Task NotYetStarted"><rect class="shape" rx="5" ry="5" x="-123.5999984741211" y="-19" width="247.1999969482422" height="38"/><text class="label"><tspan xml:space="preserve" text-anchor="middle" alignment-baseline="central">TaskGenerateClassificationMapping</tspan></text></g></g><g class="node-container" transform="translate(211.82083129882812,271)"><g class="node state Task NotYetStarted"><rect class="shape" rx="5" ry="5" x="-141.44166564941406" y="-19" width="282.8833312988281" height="38"/><text class="label"><tspan xml:space="preserve" text-anchor="middle" alignment-baseline="central">DocumentSplitterWorkflow-Configurator</tspan></text></g></g><g class="node-container" transform="translate(211.82083129882812,334)"><g class="node state Task NotYetStarted"><rect class="shape" rx="5" ry="5" x="-75.84166717529297" y="-19" width="151.68333435058594" height="38"/><text class="label"><tspan xml:space="preserve" text-anchor="middle" alignment-baseline="central">TextractSyncQueries</tspan></text></g></g><g class="node-container" transform="translate(211.82083129882812,397)"><g class="node state Task NotYetStarted"><rect class="shape" rx="5" ry="5" x="-64.95000076293945" y="-19" width="129.9000015258789" height="38"/><text class="label"><tspan xml:space="preserve" text-anchor="middle" alignment-baseline="central">GenerateCsvTask</tspan></text></g></g><g class="node-container" transform="translate(211.82083129882812,460)"><g class="node state Task NotYetStarted"><rect class="shape" rx="5" ry="5" x="-50.95000076293945" y="-19" width="101.9000015258789" height="38"/><text class="label"><tspan xml:space="preserve" text-anchor="middle" alignment-baseline="central">CsvToAurora</tspan></text></g></g></g><g class="edges"><g class="edge"><path class="path" style="fill: none;" marker-end="url(#arrowhead310)" d="M123.5999984741211,38L123.59999847412108,40.08333333333333C123.5999984741211,42.166666666666664,123.5999984741211,46.33333333333333,123.59999847412108,50.5C123.5999984741211,54.666666666666664,123.5999984741211,58.83333333333333,123.59999847412108,60.916666666666664L123.5999984741211,63"/><defs><marker id="arrowhead310" viewBox="0 0 10 10" refX="9" refY="5" markerUnits="strokeWidth" markerWidth="8" markerHeight="6" orient="auto"><path d="M 0 0 L 10 5 L 0 10 z"/></marker></defs></g><g class="edge"><path class="path" style="fill: none;" marker-end="url(#arrowhead311)" d="M123.5999984741211,101L123.59999847412108,103.08333333333331C123.5999984741211,105.16666666666666,123.5999984741211,109.33333333333331,123.59999847412108,113.49999999999999C123.5999984741211,117.66666666666666,123.5999984741211,121.83333333333333,123.59999847412108,123.91666666666666L123.5999984741211,126"/><defs><marker id="arrowhead311" viewBox="0 0 10 10" refX="9" refY="5" markerUnits="strokeWidth" markerWidth="8" markerHeight="6" orient="auto"><path d="M 0 0 L 10 5 L 0 10 z"/></marker></defs></g><g class="edge"><path class="path" style="fill: none;" marker-end="url(#arrowhead312)" d="M123.5999984741211,164L123.59999847412108,166.08333333333331C123.5999984741211,168.16666666666666,123.5999984741211,172.33333333333331,123.59999847412108,176.5C123.5999984741211,180.66666666666666,123.5999984741211,184.83333333333331,123.59999847412108,186.91666666666666L123.5999984741211,189"/><defs><marker id="arrowhead312" viewBox="0 0 10 10" refX="9" refY="5" markerUnits="strokeWidth" markerWidth="8" markerHeight="6" orient="auto"><path d="M 0 0 L 10 5 L 0 10 z"/></marker></defs></g><g class="edge"><path class="path" style="fill: none;" marker-end="url(#arrowhead313)" d="M70.38743264334542,227L64.55272147769018,229.0833333333333C58.71801031203496,231.16666666666663,47.04858798072451,235.33333333333331,41.21387681506929,242.66666666666666C35.37916564941406,250,35.37916564941406,260.5,35.37916564941406,271C35.37916564941406,281.5,35.37916564941406,292,35.37916564941406,302.5C35.37916564941406,313,35.37916564941406,323.5,35.37916564941406,334C35.37916564941406,344.5,35.37916564941406,355,35.37916564941406,365.5C35.37916564941406,376,35.37916564941406,386.49999999999994,35.37916564941406,397C35.37916564941406,407.49999999999994,35.37916564941406,417.99999999999994,35.37916564941406,428.4999999999999C35.37916564941406,438.99999999999994,35.37916564941406,449.49999999999994,35.37916564941406,459.9999999999999C35.37916564941406,470.49999999999994,35.37916564941406,480.99999999999994,41.213876815069284,488.33333333333326C47.04858798072451,495.66666666666663,58.71801031203496,499.8333333333333,64.5527214776902,501.91666666666663L70.38743264334542,504"/><defs><marker id="arrowhead313" viewBox="0 0 10 10" refX="9" refY="5" markerUnits="strokeWidth" markerWidth="8" markerHeight="6" orient="auto"><path d="M 0 0 L 10 5 L 0 10 z"/></marker></defs></g><g class="edge"><path class="path" style="fill: none;" marker-end="url(#arrowhead314)" d="M176.81256430489677,227L182.64727547055196,229.0833333333333C188.4819866362072,231.16666666666663,200.15140896751765,235.33333333333331,205.98612013317285,239.5C211.8208312988281,243.66666666666666,211.8208312988281,247.83333333333331,211.82083129882807,249.91666666666666L211.82083129882812,252"/><defs><marker id="arrowhead314" viewBox="0 0 10 10" refX="9" refY="5" markerUnits="strokeWidth" markerWidth="8" markerHeight="6" orient="auto"><path d="M 0 0 L 10 5 L 0 10 z"/></marker></defs></g><g class="edge"><path class="path" style="fill: none;" marker-end="url(#arrowhead315)" d="M211.82083129882812,290L211.82083129882807,292.0833333333333C211.8208312988281,294.16666666666663,211.8208312988281,298.3333333333333,211.82083129882807,302.5C211.8208312988281,306.66666666666663,211.8208312988281,310.8333333333333,211.82083129882807,312.9166666666667L211.82083129882812,315"/><defs><marker id="arrowhead315" viewBox="0 0 10 10" refX="9" refY="5" markerUnits="strokeWidth" markerWidth="8" markerHeight="6" orient="auto"><path d="M 0 0 L 10 5 L 0 10 z"/></marker></defs></g><g class="edge"><path class="path" style="fill: none;" marker-end="url(#arrowhead316)" d="M211.82083129882812,353L211.82083129882807,355.0833333333333C211.8208312988281,357.16666666666663,211.8208312988281,361.3333333333333,211.82083129882807,365.5C211.8208312988281,369.66666666666663,211.8208312988281,373.8333333333333,211.82083129882807,375.9166666666667L211.82083129882812,378"/><defs><marker id="arrowhead316" viewBox="0 0 10 10" refX="9" refY="5" markerUnits="strokeWidth" markerWidth="8" markerHeight="6" orient="auto"><path d="M 0 0 L 10 5 L 0 10 z"/></marker></defs></g><g class="edge"><path class="path" style="fill: none;" marker-end="url(#arrowhead317)" d="M211.82083129882812,416L211.82083129882807,418.08333333333326C211.8208312988281,420.16666666666663,211.8208312988281,424.33333333333326,211.82083129882807,428.49999999999994C211.8208312988281,432.66666666666663,211.8208312988281,436.8333333333333,211.82083129882807,438.91666666666663L211.82083129882812,441"/><defs><marker id="arrowhead317" viewBox="0 0 10 10" refX="9" refY="5" markerUnits="strokeWidth" markerWidth="8" markerHeight="6" orient="auto"><path d="M 0 0 L 10 5 L 0 10 z"/></marker></defs></g><g class="edge"><path class="path" style="fill: none;" marker-end="url(#arrowhead318)" d="M211.82083129882812,479L211.82083129882807,481.08333333333326C211.8208312988281,483.16666666666663,211.8208312988281,487.33333333333326,205.98612013317285,491.49999999999994C200.15140896751765,495.66666666666663,188.4819866362072,499.8333333333333,182.64727547055196,501.91666666666663L176.81256430489677,504"/><defs><marker id="arrowhead318" viewBox="0 0 10 10" refX="9" refY="5" markerUnits="strokeWidth" markerWidth="8" markerHeight="6" orient="auto"><path d="M 0 0 L 10 5 L 0 10 z"/></marker></defs></g></g></g></g><path class="path" style="fill: none;" marker-end="url(#arrowhead319)" d="M196.63125610351562,0L196.6312561035156,1.6666666666666665C196.63125610351562,3.333333333333333,196.63125610351562,6.666666666666666,187.79271316528317,8.333333333333332C178.95417022705078,10,161.27708435058594,10,152.4385414123535,11.666666666666664C143.5999984741211,13.333333333333332,143.5999984741211,16.666666666666664,143.59999847412107,18.333333333333332L143.5999984741211,20"/></g></g></g><g class="edges"><g class="edge"><path class="path" style="fill: none;" marker-end="url(#arrowhead320)" d="M204.13125610351562,101L204.1312561035156,103.08333333333331C204.13125610351562,105.16666666666666,204.13125610351562,109.33333333333331,204.1312561035156,113.49999999999999C204.13125610351562,117.66666666666666,204.13125610351562,121.83333333333333,204.1312561035156,123.91666666666666L204.13125610351562,126"/><defs><marker id="arrowhead320" viewBox="0 0 10 10" refX="9" refY="5" markerUnits="strokeWidth" markerWidth="8" markerHeight="6" orient="auto"><path d="M 0 0 L 10 5 L 0 10 z"/></marker></defs></g><g class="edge"><path class="path" style="fill: none;" marker-end="url(#arrowhead321)" d="M204.13125610351562,45.875L204.1312561035156,46.64583333333333C204.13125610351562,47.416666666666664,204.13125610351562,48.95833333333333,204.1312561035156,51.8125C204.13125610351562,54.666666666666664,204.13125610351562,58.83333333333333,204.1312561035156,60.916666666666664L204.13125610351562,63"/><defs><marker id="arrowhead321" viewBox="0 0 10 10" refX="9" refY="5" markerUnits="strokeWidth" markerWidth="8" markerHeight="6" orient="auto"><path d="M 0 0 L 10 5 L 0 10 z"/></marker></defs></g><g class="edge"><path class="path" style="fill: none;" marker-end="url(#arrowhead322)" d="M204.13125610351562,164L204.1312561035156,166.08333333333331C204.13125610351562,168.16666666666666,204.13125610351562,172.33333333333331,204.1312561035156,176.5C204.13125610351562,180.66666666666666,204.13125610351562,184.83333333333331,204.1312561035156,186.91666666666666L204.13125610351562,189"/><defs><marker id="arrowhead322" viewBox="0 0 10 10" refX="9" refY="5" markerUnits="strokeWidth" markerWidth="8" markerHeight="6" orient="auto"><path d="M 0 0 L 10 5 L 0 10 z"/></marker></defs></g><g class="edge"><path class="path" style="fill: none;" marker-end="url(#arrowhead323)" d="M204.13125610351562,771L204.1312561035156,773.0833333333333C204.13125610351562,775.1666666666666,204.13125610351562,779.3333333333333,204.1312561035156,782.8041666348774C204.13125610351562,786.2749999364216,204.13125610351562,789.0499998728434,204.1312561035156,790.4374998410542L204.13125610351562,791.8249998092651"/><defs><marker id="arrowhead323" viewBox="0 0 10 10" refX="9" refY="5" markerUnits="strokeWidth" markerWidth="8" markerHeight="6" orient="auto"><path d="M 0 0 L 10 5 L 0 10 z"/></marker></defs></g></g></g><style xmlns="http://www.w3.org/1999/xhtml">.node &gt; .shape {stroke: #555555;stroke-width: 0.6px;fill: #FFFFFF;} path {stroke: #555;background-color: #555;stroke-width: 1px;} .node.state.NotYetStarted &gt; .shape,.node.state.Container &gt; .shape {stroke-dasharray: 5 2;} .node.state.Failed &gt; .shape,rect.legend.Failed {fill: #DE322F;} .node.state.CaughtError &gt; .shape,rect.legend.CaughtError {fill: #FFA500;} .node.state.Succeeded &gt; .shape,rect.legend.Succeeded {fill: #2BD62E;} .node.state.InProgress &gt; .shape,rect.legend.InProgress {fill: #53c9ed;} .node.state.Cancelled &gt; .shape,rect.legend.Cancelled {fill: #dddddd;} .node.anchor &gt; .shape {fill: #FFDA75;} .node.state.hovered:not(.selected):not(.NotYetStarted) &gt; .shape,.node.selected &gt; .shape {stroke: #555555;stroke-width: 2px;} .node.state.Container.Failed &gt; .shape {fill: #EE9592;} .node.state.Container.CaughtError &gt; .shape {fill: #FFD27F;} .node.state.Container.Succeeded &gt; .shape {fill: #91EA9A;} .node.state.Container.InProgress &gt; .shape {fill :#A9E4F7;} .node.state.Container.Cancelled &gt; .shape {fill: #EEEEEE;} marker {fill: #555555;} .node.anchor,.node.state.NotYetStarted {cursor: default;} .node.state {cursor: pointer;} tspan .label {font-weight: normal;font-size: 12px;text-shadow: none;} </style></svg>