<!DOCTYPE svg PUBLIC "-//W3C//DTD SVG 1.1//EN" "https://www.w3.org/Graphics/SVG/1.1/DTD/svg11.dtd">
<svg xmlns="http://www.w3.org/2000/svg" id="sfn-svg" class="sfn-workflow-graph" width="1336" height="1128">
    
    
<g transform="translate(12,19.899999618530273)"><g class="nodes"><g class="node-container" transform="translate(872.0666561126709,18.524999618530273)"><g class="node anchor"><circle class="shape" x="-16.424999237060547" y="-8.524999618530273" r="26.424999237060547"/><text class="label"><tspan xml:space="preserve" text-anchor="middle" alignment-baseline="central">Start</tspan></text></g></g><g class="node-container" transform="translate(772.3374919891357,1073.3749866485596)"><g class="node anchor"><circle class="shape" x="-12.725000381469727" y="-8.524999618530273" r="22.725000381469727"/><text class="label"><tspan xml:space="preserve" text-anchor="middle" alignment-baseline="central">End</tspan></text></g></g><g class="node-container" transform="translate(872.0666561126709,80.57499885559082)"><g class="node state Task NotYetStarted"><rect class="shape" rx="5" ry="5" x="-85.71666717529297" y="-18.524999618530273" width="171.43333435058594" height="37.04999923706055"/><text class="label"><tspan xml:space="preserve" text-anchor="middle" alignment-baseline="central">SpacyDemoIDP-Decider</tspan></text></g></g><g class="node-container" transform="translate(872.0666561126709,142.62499809265137)"><g class="node state Task NotYetStarted"><rect class="shape" rx="5" ry="5" x="-45.83333206176758" y="-18.524999618530273" width="91.66666412353516" height="37.04999923706055"/><text class="label"><tspan xml:space="preserve" text-anchor="middle" alignment-baseline="central">Randomize</tspan></text></g></g><g class="node-container" transform="translate(872.0666561126709,204.6749973297119)"><g class="node state Choice NotYetStarted"><rect class="shape" rx="5" ry="5" x="-31.58333396911621" y="-18.524999618530273" width="63.16666793823242" height="37.04999923706055"/><text class="label"><tspan xml:space="preserve" text-anchor="middle" alignment-baseline="central">Choice</tspan></text></g></g><g class="node-container" transform="translate(959.5791549682617,266.72499656677246)"><g class="node state Task NotYetStarted"><rect class="shape" rx="5" ry="5" x="-54.70833206176758" y="-18.524999618530273" width="109.41666412353516" height="37.04999923706055"/><text class="label"><tspan xml:space="preserve" text-anchor="middle" alignment-baseline="central">TextractAsync</tspan></text></g></g><g class="node-container" transform="translate(784.5541572570801,328.774995803833)"><g class="node state Task NotYetStarted"><rect class="shape" rx="5" ry="5" x="-51.108333587646484" y="-18.524999618530273" width="102.21666717529297" height="37.04999923706055"/><text class="label"><tspan xml:space="preserve" text-anchor="middle" alignment-baseline="central">TextractSync</tspan></text></g></g><g class="node-container" transform="translate(872.0666561126709,390.82499504089355)"><g class="node state Task NotYetStarted"><rect class="shape" rx="5" ry="5" x="-53.04166793823242" y="-18.524999618530273" width="106.08333587646484" height="37.04999923706055"/><text class="label"><tspan xml:space="preserve" text-anchor="middle" alignment-baseline="central">GenerateText</tspan></text></g></g><g class="node-container" transform="translate(872.0666561126709,452.8749942779541)"><g class="node state Task NotYetStarted"><rect class="shape" rx="5" ry="5" x="-52.224998474121094" y="-18.524999618530273" width="104.44999694824219" height="37.04999923706055"/><text class="label"><tspan xml:space="preserve" text-anchor="middle" alignment-baseline="central">Classification</tspan></text></g></g><g class="node-container" transform="translate(959.5791549682617,328.774995803833)"><g class="node state Task NotYetStarted"><rect class="shape" rx="5" ry="5" x="-83.91666412353516" y="-18.524999618530273" width="167.8333282470703" height="37.04999923706055"/><text class="label"><tspan xml:space="preserve" text-anchor="middle" alignment-baseline="central">TextractAsyncToJSON2</tspan></text></g></g><g class="node-container" transform="translate(872.0666561126709,514.9249935150146)"><g class="node state Choice NotYetStarted"><rect class="shape" rx="5" ry="5" x="-56.54166793823242" y="-18.524999618530273" width="113.08333587646484" height="37.04999923706055"/><text class="label"><tspan xml:space="preserve" text-anchor="middle" alignment-baseline="central">RouteDocType</tspan></text></g></g><g class="node-container" transform="translate(672.6083278656006,1011.324987411499)"><g class="node state Pass NotYetStarted"><rect class="shape" rx="5" ry="5" x="-86.60832977294922" y="-18.524999618530273" width="173.21665954589844" height="37.04999923706055"/><text class="label"><tspan xml:space="preserve" text-anchor="middle" alignment-baseline="central">DocumentTypeNotClear</tspan></text></g></g><g class="node-container" transform="translate(872.0666561126709,1011.324987411499)"><g class="node state Pass NotYetStarted"><rect class="shape" rx="5" ry="5" x="-72.8499984741211" y="-18.524999618530273" width="145.6999969482422" height="37.04999923706055"/><text class="label"><tspan xml:space="preserve" text-anchor="middle" alignment-baseline="central">SendToOpenSearch</tspan></text></g></g><g class="node-container" transform="translate(1046.9083194732666,1011.324987411499)"><g class="node state Task NotYetStarted"><rect class="shape" rx="5" ry="5" x="-61.99166488647461" y="-18.524999618530273" width="123.98332977294922" height="37.04999923706055"/><text class="label"><tspan xml:space="preserve" text-anchor="middle" alignment-baseline="central">TextractSyncID2</tspan></text></g></g><g class="node-container" transform="translate(1230.0833187103271,1011.324987411499)"><g class="node state Task NotYetStarted"><rect class="shape" rx="5" ry="5" x="-81.18333435058594" y="-18.524999618530273" width="162.36666870117188" height="37.04999923706055"/><text class="label"><tspan xml:space="preserve" text-anchor="middle" alignment-baseline="central">TextractSyncExpense2</tspan></text></g></g><g class="node-container" transform="translate(250.87083435058594,576.9749927520752)"><g class="node state Task NotYetStarted"><rect class="shape" rx="5" ry="5" x="-102.24166870117188" y="-18.524999618530273" width="204.48333740234375" height="37.04999923706055"/><text class="label"><tspan xml:space="preserve" text-anchor="middle" alignment-baseline="central">SpacyDemoIDP-Configurator</tspan></text></g></g><g class="node-container" transform="translate(250.87083435058594,639.0249919891357)"><g class="node state Choice NotYetStarted"><rect class="shape" rx="5" ry="5" x="-81.59166717529297" y="-18.524999618530273" width="163.18333435058594" height="37.04999923706055"/><text class="label"><tspan xml:space="preserve" text-anchor="middle" alignment-baseline="central">NumberQueriesChoice</tspan></text></g></g><g class="node-container" transform="translate(329.78333282470703,825.1749897003174)"><g class="node state Task NotYetStarted"><rect class="shape" rx="5" ry="5" x="-90.625" y="-18.524999618530273" width="181.25" height="37.04999923706055"/><text class="label"><tspan xml:space="preserve" text-anchor="middle" alignment-baseline="central">TextractAsyncWithConfig</tspan></text></g></g><g class="node-container" transform="translate(482.2666645050049,1011.324987411499)"><g class="node state Fail NotYetStarted"><rect class="shape" rx="5" ry="5" x="-63.733333587646484" y="-18.524999618530273" width="127.46666717529297" height="37.04999923706055"/><text class="label"><tspan xml:space="preserve" text-anchor="middle" alignment-baseline="central">TooManyQueries</tspan></text></g></g><g class="node-container" transform="translate(87.0250015258789,701.0749912261963)"><g class="node state Task NotYetStarted"><rect class="shape" rx="5" ry="5" x="-49.93333435058594" y="-18.524999618530273" width="99.86666870117188" height="37.04999923706055"/><text class="label"><tspan xml:space="preserve" text-anchor="middle" alignment-baseline="central">Randomize2</tspan></text></g></g><g class="node-container" transform="translate(87.0250015258789,763.1249904632568)"><g class="node state Choice NotYetStarted"><rect class="shape" rx="5" ry="5" x="-35.683332443237305" y="-18.524999618530273" width="71.36666488647461" height="37.04999923706055"/><text class="label"><tspan xml:space="preserve" text-anchor="middle" alignment-baseline="central">Choice2</tspan></text></g></g><g class="node-container" transform="translate(87.0250015258789,887.2249889373779)"><g class="node state Task NotYetStarted"><rect class="shape" rx="5" ry="5" x="-87.0250015258789" y="-18.524999618530273" width="174.0500030517578" height="37.04999923706055"/><text class="label"><tspan xml:space="preserve" text-anchor="middle" alignment-baseline="central">TextractSyncWithConfig</tspan></text></g></g><g class="node-container" transform="translate(208.40416717529297,949.2749881744385)"><g class="node state Task NotYetStarted"><rect class="shape" rx="5" ry="5" x="-64.5" y="-18.524999618530273" width="129" height="37.04999923706055"/><text class="label"><tspan xml:space="preserve" text-anchor="middle" alignment-baseline="central">GenerateCsvTask</tspan></text></g></g><g class="node-container" transform="translate(208.40416717529297,1011.324987411499)"><g class="node state Task NotYetStarted"><rect class="shape" rx="5" ry="5" x="-50.5" y="-18.524999618530273" width="101" height="37.04999923706055"/><text class="label"><tspan xml:space="preserve" text-anchor="middle" alignment-baseline="central">CsvToAurora</tspan></text></g></g><g class="node-container" transform="translate(329.78333282470703,887.2249889373779)"><g class="node state Task NotYetStarted"><rect class="shape" rx="5" ry="5" x="-115.73332977294922" y="-18.524999618530273" width="231.46665954589844" height="37.04999923706055"/><text class="label"><tspan xml:space="preserve" text-anchor="middle" alignment-baseline="central">TextractAsyncWithConfigToJSON</tspan></text></g></g></g><g class="edges"><g class="edge"><path class="path" style="fill: none;" marker-end="url(#arrowhead71)" d="M872.0666561126709,99.0999984741211L872.0666561126707,101.18333180745442C872.0666561126708,103.26666514078775,872.0666561126708,107.43333180745442,872.0666561126707,111.5999984741211C872.0666561126708,115.76666514078775,872.0666561126708,119.93333180745441,872.0666561126707,122.01666514078775L872.0666561126709,124.0999984741211"/><defs><marker id="arrowhead71" viewBox="0 0 10 10" refX="9" refY="5" markerUnits="strokeWidth" markerWidth="8" markerHeight="6" orient="auto"><path d="M 0 0 L 10 5 L 0 10 z"/></marker></defs></g><g class="edge"><path class="path" style="fill: none;" marker-end="url(#arrowhead72)" d="M872.0666561126709,44.94999885559082L872.0666561126707,45.71666558583577C872.0666561126708,46.48333231608073,872.0666561126708,48.01666577657063,872.0666561126707,50.866665840148926C872.0666561126708,53.71666590372721,872.0666561126708,57.883332570393875,872.0666561126707,59.966665903727204L872.0666561126709,62.04999923706055"/><defs><marker id="arrowhead72" viewBox="0 0 10 10" refX="9" refY="5" markerUnits="strokeWidth" markerWidth="8" markerHeight="6" orient="auto"><path d="M 0 0 L 10 5 L 0 10 z"/></marker></defs></g><g class="edge"><path class="path" style="fill: none;" marker-end="url(#arrowhead73)" d="M872.0666561126709,161.14999771118164L872.0666561126707,163.23333104451496C872.0666561126708,165.3166643778483,872.0666561126708,169.48333104451496,872.0666561126707,173.64999771118164C872.0666561126708,177.8166643778483,872.0666561126708,181.98333104451496,872.0666561126707,184.0666643778483L872.0666561126709,186.14999771118164"/><defs><marker id="arrowhead73" viewBox="0 0 10 10" refX="9" refY="5" markerUnits="strokeWidth" markerWidth="8" markerHeight="6" orient="auto"><path d="M 0 0 L 10 5 L 0 10 z"/></marker></defs></g><g class="edge"><path class="path" style="fill: none;" marker-end="url(#arrowhead74)" d="M903.6499900817871,215.87194561890072L912.9715175628662,219.17662084045762C922.2930450439453,222.48129606201454,940.9361000061035,229.09064650512835,950.2576274871826,234.47865506001858C959.5791549682617,239.86666361490884,959.5791549682617,244.0333302815755,959.5791549682617,246.11666361490882L959.5791549682617,248.1999969482422"/><defs><marker id="arrowhead74" viewBox="0 0 10 10" refX="9" refY="5" markerUnits="strokeWidth" markerWidth="8" markerHeight="6" orient="auto"><path d="M 0 0 L 10 5 L 0 10 z"/></marker></defs></g><g class="edge"><path class="path" style="fill: none;" marker-end="url(#arrowhead75)" d="M840.4833221435547,215.87194561890072L831.1617946624755,219.17662084045762C821.8402671813965,222.48129606201454,803.1972122192383,229.09064650512835,793.8756847381591,237.5661549964403C784.5541572570801,246.04166348775226,784.5541572570801,256.38333002726233,784.55415725708,266.72499656677246C784.5541572570801,277.06666310628253,784.5541572570801,287.4083296457926,784.55415725708,294.662496248881C784.5541572570801,301.91666285196936,784.5541572570801,306.08332951863605,784.55415725708,308.1666628519694L784.5541572570801,310.24999618530273"/><defs><marker id="arrowhead75" viewBox="0 0 10 10" refX="9" refY="5" markerUnits="strokeWidth" markerWidth="8" markerHeight="6" orient="auto"><path d="M 0 0 L 10 5 L 0 10 z"/></marker></defs></g><g class="edge"><path class="path" style="fill: none;" marker-end="url(#arrowhead76)" d="M784.5541572570801,347.2999954223633L784.55415725708,349.3833287556966C784.5541572570801,351.4666620890299,784.5541572570801,355.6333287556966,790.4306345557374,359.7999954223633C796.3071118543949,363.9666620890299,808.0600664517096,368.1333287556966,813.9365437503669,370.21666208902997L819.8130210490244,372.2999954223633"/><defs><marker id="arrowhead76" viewBox="0 0 10 10" refX="9" refY="5" markerUnits="strokeWidth" markerWidth="8" markerHeight="6" orient="auto"><path d="M 0 0 L 10 5 L 0 10 z"/></marker></defs></g><g class="edge"><path class="path" style="fill: none;" marker-end="url(#arrowhead77)" d="M872.0666561126709,409.3499946594238L872.0666561126707,411.4333279927571C872.0666561126708,413.51666132609046,872.0666561126708,417.68332799275714,872.0666561126707,421.84999465942377C872.0666561126708,426.01666132609046,872.0666561126708,430.18332799275714,872.0666561126707,432.26666132609046L872.0666561126709,434.3499946594238"/><defs><marker id="arrowhead77" viewBox="0 0 10 10" refX="9" refY="5" markerUnits="strokeWidth" markerWidth="8" markerHeight="6" orient="auto"><path d="M 0 0 L 10 5 L 0 10 z"/></marker></defs></g><g class="edge"><path class="path" style="fill: none;" marker-end="url(#arrowhead78)" d="M959.5791549682617,347.2999954223633L959.5791549682617,349.3833287556966C959.5791549682617,351.4666620890299,959.5791549682617,355.6333287556966,953.7026776696043,359.7999954223633C947.8262003709469,363.9666620890299,936.0732457736322,368.1333287556966,930.1967684749748,370.21666208902997L924.3202911763174,372.2999954223633"/><defs><marker id="arrowhead78" viewBox="0 0 10 10" refX="9" refY="5" markerUnits="strokeWidth" markerWidth="8" markerHeight="6" orient="auto"><path d="M 0 0 L 10 5 L 0 10 z"/></marker></defs></g><g class="edge"><path class="path" style="fill: none;" marker-end="url(#arrowhead79)" d="M959.5791549682617,285.24999618530273L959.5791549682617,287.33332951863605C959.5791549682617,289.41666285196936,959.5791549682617,293.58332951863605,959.5791549682617,297.74999618530273C959.5791549682617,301.91666285196936,959.5791549682617,306.08332951863605,959.5791549682617,308.1666628519694L959.5791549682617,310.24999618530273"/><defs><marker id="arrowhead79" viewBox="0 0 10 10" refX="9" refY="5" markerUnits="strokeWidth" markerWidth="8" markerHeight="6" orient="auto"><path d="M 0 0 L 10 5 L 0 10 z"/></marker></defs></g><g class="edge"><path class="path" style="fill: none;" marker-end="url(#arrowhead80)" d="M872.0666561126709,471.3999938964844L872.0666561126707,473.4833272298177C872.0666561126708,475.566660563151,872.0666561126708,479.7333272298177,872.0666561126707,483.8999938964844C872.0666561126708,488.066660563151,872.0666561126708,492.23332722981763,872.0666561126707,494.316660563151L872.0666561126709,496.3999938964844"/><defs><marker id="arrowhead80" viewBox="0 0 10 10" refX="9" refY="5" markerUnits="strokeWidth" markerWidth="8" markerHeight="6" orient="auto"><path d="M 0 0 L 10 5 L 0 10 z"/></marker></defs></g><g class="edge"><path class="path" style="fill: none;" marker-end="url(#arrowhead81)" d="M815.5249881744385,523.719839243601L791.7055447896321,527.4248648919249C767.8861014048258,531.1298905402489,720.2472146352131,538.5399418368969,696.4277712504069,547.415800754976C672.6083278656006,556.2916596730549,672.6083278656006,566.6333262125651,672.6083278656006,576.9749927520752C672.6083278656006,587.3166592915852,672.6083278656006,597.6583258310953,672.6083278656006,607.9999923706055C672.6083278656006,618.3416589101155,672.6083278656006,628.6833254496256,672.6083278656006,639.0249919891357C672.6083278656006,649.3666585286458,672.6083278656006,659.7083250681559,672.6083278656006,670.049991607666C672.6083278656006,680.391658147176,672.6083278656006,690.7333246866862,672.6083278656006,701.0749912261963C672.6083278656006,711.4166577657063,672.6083278656006,721.7583243052164,672.6083278656006,732.0999908447266C672.6083278656006,742.4416573842366,672.6083278656006,752.7833239237467,672.6083278656006,763.1249904632568C672.6083278656006,773.4666570027669,672.6083278656006,783.808323542277,672.6083278656006,794.1499900817871C672.6083278656006,804.4916566212971,672.6083278656006,814.8333231608073,672.6083278656006,825.1749897003174C672.6083278656006,835.5166562398274,672.6083278656006,845.8583227793374,672.6083278656006,856.1999893188475C672.6083278656006,866.5416558583577,672.6083278656006,876.8833223978678,672.6083278656006,887.2249889373778C672.6083278656006,897.566655476888,672.6083278656006,907.9083220163981,672.6083278656006,918.2499885559082C672.6083278656006,928.5916550954182,672.6083278656006,938.9333216349282,672.6083278656006,949.2749881744384C672.6083278656006,959.6166547139485,672.6083278656006,969.9583212534586,672.6083278656006,977.2124878565469C672.6083278656006,984.4666544596354,672.6083278656006,988.633321126302,672.6083278656006,990.7166544596353L672.6083278656006,992.7999877929688"/><defs><marker id="arrowhead81" viewBox="0 0 10 10" refX="9" refY="5" markerUnits="strokeWidth" markerWidth="8" markerHeight="6" orient="auto"><path d="M 0 0 L 10 5 L 0 10 z"/></marker></defs></g><g class="edge"><path class="path" style="fill: none;" marker-end="url(#arrowhead82)" d="M872.0666561126709,533.4499931335449L872.0666561126707,535.5333264668782C872.0666561126708,537.6166598002116,872.0666561126708,541.7833264668782,872.0666561126707,549.0374930699666C872.0666561126708,556.2916596730549,872.0666561126708,566.6333262125651,872.0666561126707,576.9749927520752C872.0666561126708,587.3166592915852,872.0666561126708,597.6583258310953,872.0666561126707,607.9999923706055C872.0666561126708,618.3416589101155,872.0666561126708,628.6833254496256,872.0666561126707,639.0249919891357C872.0666561126708,649.3666585286458,872.0666561126708,659.7083250681559,872.0666561126707,670.049991607666C872.0666561126708,680.391658147176,872.0666561126708,690.7333246866862,872.0666561126707,701.0749912261963C872.0666561126708,711.4166577657063,872.0666561126708,721.7583243052164,872.0666561126707,732.0999908447266C872.0666561126708,742.4416573842366,872.0666561126708,752.7833239237467,872.0666561126707,763.1249904632568C872.0666561126708,773.4666570027669,872.0666561126708,783.808323542277,872.0666561126707,794.1499900817871C872.0666561126708,804.4916566212971,872.0666561126708,814.8333231608073,872.0666561126707,825.1749897003174C872.0666561126708,835.5166562398274,872.0666561126708,845.8583227793374,872.0666561126707,856.1999893188475C872.0666561126708,866.5416558583577,872.0666561126708,876.8833223978678,872.0666561126707,887.2249889373778C872.0666561126708,897.566655476888,872.0666561126708,907.9083220163981,872.0666561126707,918.2499885559082C872.0666561126708,928.5916550954182,872.0666561126708,938.9333216349282,872.0666561126707,949.2749881744384C872.0666561126708,959.6166547139485,872.0666561126708,969.9583212534586,872.0666561126707,977.2124878565469C872.0666561126708,984.4666544596354,872.0666561126708,988.633321126302,872.0666561126707,990.7166544596353L872.0666561126709,992.7999877929688"/><defs><marker id="arrowhead82" viewBox="0 0 10 10" refX="9" refY="5" markerUnits="strokeWidth" markerWidth="8" markerHeight="6" orient="auto"><path d="M 0 0 L 10 5 L 0 10 z"/></marker></defs></g><g class="edge"><path class="path" style="fill: none;" marker-end="url(#arrowhead83)" d="M928.6083240509033,524.95810114221L948.3249899546305,528.4567498074325C968.0416558583577,531.9553984726549,1007.4749876658121,538.9526958030999,1027.1916535695393,547.6221777380774C1046.9083194732666,556.2916596730549,1046.9083194732666,566.6333262125651,1046.9083194732666,576.9749927520752C1046.9083194732666,587.3166592915852,1046.9083194732666,597.6583258310953,1046.9083194732666,607.9999923706055C1046.9083194732666,618.3416589101155,1046.9083194732666,628.6833254496256,1046.9083194732666,639.0249919891357C1046.9083194732666,649.3666585286458,1046.9083194732666,659.7083250681559,1046.9083194732666,670.049991607666C1046.9083194732666,680.391658147176,1046.9083194732666,690.7333246866862,1046.9083194732666,701.0749912261963C1046.9083194732666,711.4166577657063,1046.9083194732666,721.7583243052164,1046.9083194732666,732.0999908447266C1046.9083194732666,742.4416573842366,1046.9083194732666,752.7833239237467,1046.9083194732666,763.1249904632568C1046.9083194732666,773.4666570027669,1046.9083194732666,783.808323542277,1046.9083194732666,794.1499900817871C1046.9083194732666,804.4916566212971,1046.9083194732666,814.8333231608073,1046.9083194732666,825.1749897003174C1046.9083194732666,835.5166562398274,1046.9083194732666,845.8583227793374,1046.9083194732666,856.1999893188475C1046.9083194732666,866.5416558583577,1046.9083194732666,876.8833223978678,1046.9083194732666,887.2249889373778C1046.9083194732666,897.566655476888,1046.9083194732666,907.9083220163981,1046.9083194732666,918.2499885559082C1046.9083194732666,928.5916550954182,1046.9083194732666,938.9333216349282,1046.9083194732666,949.2749881744384C1046.9083194732666,959.6166547139485,1046.9083194732666,969.9583212534586,1046.9083194732666,977.2124878565469C1046.9083194732666,984.4666544596354,1046.9083194732666,988.633321126302,1046.9083194732666,990.7166544596353L1046.9083194732666,992.7999877929688"/><defs><marker id="arrowhead83" viewBox="0 0 10 10" refX="9" refY="5" markerUnits="strokeWidth" markerWidth="8" markerHeight="6" orient="auto"><path d="M 0 0 L 10 5 L 0 10 z"/></marker></defs></g><g class="edge"><path class="path" style="fill: none;" marker-end="url(#arrowhead84)" d="M928.6083240509033,519.8247800598273L978.8541564941406,524.1789822387802C1029.099988937378,528.5331844177331,1129.5916538238525,537.241588775639,1179.8374862670898,546.766624224347C1230.0833187103271,556.2916596730549,1230.0833187103271,566.6333262125651,1230.0833187103271,576.9749927520752C1230.0833187103271,587.3166592915852,1230.0833187103271,597.6583258310953,1230.0833187103271,607.9999923706055C1230.0833187103271,618.3416589101155,1230.0833187103271,628.6833254496256,1230.0833187103271,639.0249919891357C1230.0833187103271,649.3666585286458,1230.0833187103271,659.7083250681559,1230.0833187103271,670.049991607666C1230.0833187103271,680.391658147176,1230.0833187103271,690.7333246866862,1230.0833187103271,701.0749912261963C1230.0833187103271,711.4166577657063,1230.0833187103271,721.7583243052164,1230.0833187103271,732.0999908447266C1230.0833187103271,742.4416573842366,1230.0833187103271,752.7833239237467,1230.0833187103271,763.1249904632568C1230.0833187103271,773.4666570027669,1230.0833187103271,783.808323542277,1230.0833187103271,794.1499900817871C1230.0833187103271,804.4916566212971,1230.0833187103271,814.8333231608073,1230.0833187103271,825.1749897003174C1230.0833187103271,835.5166562398274,1230.0833187103271,845.8583227793374,1230.0833187103271,856.1999893188475C1230.0833187103271,866.5416558583577,1230.0833187103271,876.8833223978678,1230.0833187103271,887.2249889373778C1230.0833187103271,897.566655476888,1230.0833187103271,907.9083220163981,1230.0833187103271,918.2499885559082C1230.0833187103271,928.5916550954182,1230.0833187103271,938.9333216349282,1230.0833187103271,949.2749881744384C1230.0833187103271,959.6166547139485,1230.0833187103271,969.9583212534586,1230.0833187103271,977.2124878565469C1230.0833187103271,984.4666544596354,1230.0833187103271,988.633321126302,1230.0833187103271,990.7166544596353L1230.0833187103271,992.7999877929688"/><defs><marker id="arrowhead84" viewBox="0 0 10 10" refX="9" refY="5" markerUnits="strokeWidth" markerWidth="8" markerHeight="6" orient="auto"><path d="M 0 0 L 10 5 L 0 10 z"/></marker></defs></g><g class="edge"><path class="path" style="fill: none;" marker-end="url(#arrowhead85)" d="M815.5249881744385,517.748910168605L721.4159625371296,522.4490906627616C627.3069368998209,527.1492711569183,439.08888562520343,536.5496321452315,344.97985998789466,543.3331459727216C250.87083435058594,550.1166598002116,250.87083435058594,554.2833264668782,250.87083435058594,556.3666598002116L250.87083435058594,558.4499931335449"/><defs><marker id="arrowhead85" viewBox="0 0 10 10" refX="9" refY="5" markerUnits="strokeWidth" markerWidth="8" markerHeight="6" orient="auto"><path d="M 0 0 L 10 5 L 0 10 z"/></marker></defs></g><g class="edge"><path class="path" style="fill: none;" marker-end="url(#arrowhead86)" d="M250.87083435058594,595.4999923706055L250.87083435058594,597.5833257039387C250.87083435058594,599.6666590372721,250.87083435058594,603.8333257039387,250.87083435058594,607.9999923706055C250.87083435058594,612.1666590372721,250.87083435058594,616.3333257039387,250.87083435058594,618.4166590372721L250.87083435058594,620.4999923706055"/><defs><marker id="arrowhead86" viewBox="0 0 10 10" refX="9" refY="5" markerUnits="strokeWidth" markerWidth="8" markerHeight="6" orient="auto"><path d="M 0 0 L 10 5 L 0 10 z"/></marker></defs></g><g class="edge"><path class="path" style="fill: none;" marker-end="url(#arrowhead87)" d="M250.87083435058594,657.549991607666L250.87083435058594,659.6333249409994C250.87083435058594,661.7166582743326,250.87083435058594,665.8833249409993,250.87083435058594,673.1374915440877C250.87083435058594,680.391658147176,250.87083435058594,690.7333246866862,250.87083435058594,701.0749912261963C250.87083435058594,711.4166577657063,250.87083435058594,721.7583243052164,250.87083435058594,732.0999908447266C250.87083435058594,742.4416573842366,250.87083435058594,752.7833239237467,250.87083435058594,763.1249904632568C250.87083435058594,773.4666570027669,250.87083435058594,783.808323542277,256.1698203460462,791.0624901453655C261.4688063415065,798.3166567484537,272.066778332427,802.4833234151204,277.3657643278873,804.5666567484536L282.66475032334756,806.6499900817871"/><defs><marker id="arrowhead87" viewBox="0 0 10 10" refX="9" refY="5" markerUnits="strokeWidth" markerWidth="8" markerHeight="6" orient="auto"><path d="M 0 0 L 10 5 L 0 10 z"/></marker></defs></g><g class="edge"><path class="path" style="fill: none;" marker-end="url(#arrowhead88)" d="M332.4625015258789,649.9646076308671L357.42986202239985,653.3121716270003C382.3972225189209,656.6597356231334,432.3319435119629,663.3548636153997,457.29930400848383,671.8732608812879C482.2666645050049,680.391658147176,482.2666645050049,690.7333246866862,482.2666645050048,701.0749912261963C482.2666645050049,711.4166577657063,482.2666645050049,721.7583243052164,482.2666645050048,732.0999908447266C482.2666645050049,742.4416573842366,482.2666645050049,752.7833239237467,482.2666645050048,763.1249904632568C482.2666645050049,773.4666570027669,482.2666645050049,783.808323542277,482.2666645050048,794.1499900817871C482.2666645050049,804.4916566212971,482.2666645050049,814.8333231608073,482.2666645050048,825.1749897003174C482.2666645050049,835.5166562398274,482.2666645050049,845.8583227793374,482.2666645050048,856.1999893188475C482.2666645050049,866.5416558583577,482.2666645050049,876.8833223978678,482.2666645050048,887.2249889373778C482.2666645050049,897.566655476888,482.2666645050049,907.9083220163981,482.2666645050048,918.2499885559082C482.2666645050049,928.5916550954182,482.2666645050049,938.9333216349282,482.2666645050048,949.2749881744384C482.2666645050049,959.6166547139485,482.2666645050049,969.9583212534586,482.2666645050048,977.2124878565469C482.2666645050049,984.4666544596354,482.2666645050049,988.633321126302,482.2666645050048,990.7166544596353L482.2666645050049,992.7999877929688"/><defs><marker id="arrowhead88" viewBox="0 0 10 10" refX="9" refY="5" markerUnits="strokeWidth" markerWidth="8" markerHeight="6" orient="auto"><path d="M 0 0 L 10 5 L 0 10 z"/></marker></defs></g><g class="edge"><path class="path" style="fill: none;" marker-end="url(#arrowhead89)" d="M169.27916717529297,654.4747681558384L155.57013956705728,657.070638731143C141.8611119588216,659.6665093064476,114.44305674235025,664.8582504570568,100.73402913411458,669.5374543656947C87.0250015258789,674.2166582743326,87.0250015258789,678.3833249409993,87.02500152587889,680.4666582743326L87.0250015258789,682.549991607666"/><defs><marker id="arrowhead89" viewBox="0 0 10 10" refX="9" refY="5" markerUnits="strokeWidth" markerWidth="8" markerHeight="6" orient="auto"><path d="M 0 0 L 10 5 L 0 10 z"/></marker></defs></g><g class="edge"><path class="path" style="fill: none;" marker-end="url(#arrowhead90)" d="M87.0250015258789,719.5999908447266L87.02500152587889,721.6833241780598C87.0250015258789,723.7666575113932,87.0250015258789,727.9333241780598,87.02500152587889,732.0999908447266C87.0250015258789,736.2666575113932,87.0250015258789,740.4333241780598,87.02500152587889,742.5166575113932L87.0250015258789,744.5999908447266"/><defs><marker id="arrowhead90" viewBox="0 0 10 10" refX="9" refY="5" markerUnits="strokeWidth" markerWidth="8" markerHeight="6" orient="auto"><path d="M 0 0 L 10 5 L 0 10 z"/></marker></defs></g><g class="edge"><path class="path" style="fill: none;" marker-end="url(#arrowhead91)" d="M122.70833396911621,766.777197933348L167.28194459279376,771.3393299580879C211.85555521647134,775.9014619828276,301.0027764638265,785.0257260323074,341.52275657254864,791.6711913903805C382.04273668127075,798.3166567484537,373.93547565135987,802.4833234151204,369.8818451364044,804.5666567484536L365.828214621449,806.6499900817871"/><defs><marker id="arrowhead91" viewBox="0 0 10 10" refX="9" refY="5" markerUnits="strokeWidth" markerWidth="8" markerHeight="6" orient="auto"><path d="M 0 0 L 10 5 L 0 10 z"/></marker></defs></g><g class="edge"><path class="path" style="fill: none;" marker-end="url(#arrowhead92)" d="M87.0250015258789,781.6499900817871L87.02500152587889,783.7333234151204C87.0250015258789,785.8166567484537,87.0250015258789,789.9833234151204,87.02500152587889,797.2374900182087C87.0250015258789,804.4916566212971,87.0250015258789,814.8333231608073,87.02500152587889,825.1749897003174C87.0250015258789,835.5166562398274,87.0250015258789,845.8583227793374,87.02500152587889,853.1124893824258C87.0250015258789,860.3666559855142,87.0250015258789,864.5333226521809,87.02500152587889,866.6166559855143L87.0250015258789,868.6999893188477"/><defs><marker id="arrowhead92" viewBox="0 0 10 10" refX="9" refY="5" markerUnits="strokeWidth" markerWidth="8" markerHeight="6" orient="auto"><path d="M 0 0 L 10 5 L 0 10 z"/></marker></defs></g><g class="edge"><path class="path" style="fill: none;" marker-end="url(#arrowhead93)" d="M87.0250015258789,905.7499885559082L87.02500152587889,907.8333218892413C87.0250015258789,909.9166552225747,87.0250015258789,914.0833218892415,96.50486246744791,918.5897455488455C105.98472340901692,923.0961692084495,124.94444529215494,927.9423498609908,134.42430623372394,930.3654401872614L143.90416717529297,932.7885305135321"/><defs><marker id="arrowhead93" viewBox="0 0 10 10" refX="9" refY="5" markerUnits="strokeWidth" markerWidth="8" markerHeight="6" orient="auto"><path d="M 0 0 L 10 5 L 0 10 z"/></marker></defs></g><g class="edge"><path class="path" style="fill: none;" marker-end="url(#arrowhead94)" d="M208.40416717529297,967.7999877929688L208.40416717529297,969.883321126302C208.40416717529297,971.9666544596354,208.40416717529297,976.133321126302,208.40416717529297,980.2999877929688C208.40416717529297,984.4666544596354,208.40416717529297,988.633321126302,208.40416717529297,990.7166544596353L208.40416717529297,992.7999877929688"/><defs><marker id="arrowhead94" viewBox="0 0 10 10" refX="9" refY="5" markerUnits="strokeWidth" markerWidth="8" markerHeight="6" orient="auto"><path d="M 0 0 L 10 5 L 0 10 z"/></marker></defs></g><g class="edge"><path class="path" style="fill: none;" marker-end="url(#arrowhead95)" d="M329.78333282470703,905.7499885559082L329.78333282470703,907.8333218892413C329.78333282470703,909.9166552225747,329.78333282470703,914.0833218892415,320.303471883138,918.5897455488455C310.823610941569,923.0961692084495,291.86388905843097,927.9423498609908,282.38402811686194,930.3654401872614L272.90416717529297,932.7885305135321"/><defs><marker id="arrowhead95" viewBox="0 0 10 10" refX="9" refY="5" markerUnits="strokeWidth" markerWidth="8" markerHeight="6" orient="auto"><path d="M 0 0 L 10 5 L 0 10 z"/></marker></defs></g><g class="edge"><path class="path" style="fill: none;" marker-end="url(#arrowhead96)" d="M329.78333282470703,843.6999893188477L329.78333282470703,845.7833226521809C329.78333282470703,847.8666559855143,329.78333282470703,852.0333226521809,329.78333282470703,856.1999893188475C329.78333282470703,860.3666559855142,329.78333282470703,864.5333226521809,329.78333282470703,866.6166559855143L329.78333282470703,868.6999893188477"/><defs><marker id="arrowhead96" viewBox="0 0 10 10" refX="9" refY="5" markerUnits="strokeWidth" markerWidth="8" markerHeight="6" orient="auto"><path d="M 0 0 L 10 5 L 0 10 z"/></marker></defs></g><g class="edge"><path class="path" style="fill: none;" marker-end="url(#arrowhead97)" d="M208.40416717529297,1029.8499870300293L208.40416717529297,1031.9333203633626C208.40416717529297,1034.0166536966958,208.40416717529297,1038.1833203633626,298.61127339786316,1045.229430877966C388.81837962043335,1052.2755413925695,569.2325920655737,1062.20109575511,659.439698288144,1067.1638729363801L749.6468045107142,1072.1266501176503"/><defs><marker id="arrowhead97" viewBox="0 0 10 10" refX="9" refY="5" markerUnits="strokeWidth" markerWidth="8" markerHeight="6" orient="auto"><path d="M 0 0 L 10 5 L 0 10 z"/></marker></defs></g><g class="edge"><path class="path" style="fill: none;" marker-end="url(#arrowhead98)" d="M482.2666645050049,1029.8499870300293L482.2666645050048,1031.9333203633626C482.2666645050049,1034.0166536966958,482.2666645050049,1038.1833203633626,526.8457822109264,1045.0346861176613C571.4248999168478,1051.8860518719603,660.5831353286908,1061.4221167138912,705.1622530346124,1066.1901491348567L749.7413707405339,1070.9581815558224"/><defs><marker id="arrowhead98" viewBox="0 0 10 10" refX="9" refY="5" markerUnits="strokeWidth" markerWidth="8" markerHeight="6" orient="auto"><path d="M 0 0 L 10 5 L 0 10 z"/></marker></defs></g><g class="edge"><path class="path" style="fill: none;" marker-end="url(#arrowhead99)" d="M672.6083278656006,1029.8499870300293L672.6083278656006,1031.9333203633626C672.6083278656006,1034.0166536966958,672.6083278656006,1038.1833203633626,685.6133160743246,1044.3124085945797C698.6183042830486,1050.441496825797,724.6282807004966,1058.5330066215647,737.6332689092206,1062.5787615194483L750.6382571179447,1066.6245164173324"/><defs><marker id="arrowhead99" viewBox="0 0 10 10" refX="9" refY="5" markerUnits="strokeWidth" markerWidth="8" markerHeight="6" orient="auto"><path d="M 0 0 L 10 5 L 0 10 z"/></marker></defs></g><g class="edge"><path class="path" style="fill: none;" marker-end="url(#arrowhead100)" d="M872.0666561126709,1029.8499870300293L872.0666561126707,1031.9333203633626C872.0666561126708,1034.0166536966958,872.0666561126708,1038.1833203633626,859.0616679039467,1044.3124085945797C846.0566796952228,1050.441496825797,820.0467032777748,1058.5330066215647,807.0417150690507,1062.5787615194483L794.0367268603268,1066.6245164173324"/><defs><marker id="arrowhead100" viewBox="0 0 10 10" refX="9" refY="5" markerUnits="strokeWidth" markerWidth="8" markerHeight="6" orient="auto"><path d="M 0 0 L 10 5 L 0 10 z"/></marker></defs></g><g class="edge"><path class="path" style="fill: none;" marker-end="url(#arrowhead101)" d="M1046.9083194732666,1029.8499870300293L1046.9083194732666,1031.9333203633626C1046.9083194732666,1034.0166536966958,1046.9083194732666,1038.1833203633626,1004.910065103182,1045.0122264064773C962.9118107330974,1051.8411324495921,878.9153019929281,1061.3322778691552,836.9170476228435,1066.0778505789367L794.918793252759,1070.8234232887182"/><defs><marker id="arrowhead101" viewBox="0 0 10 10" refX="9" refY="5" markerUnits="strokeWidth" markerWidth="8" markerHeight="6" orient="auto"><path d="M 0 0 L 10 5 L 0 10 z"/></marker></defs></g><g class="edge"><path class="path" style="fill: none;" marker-end="url(#arrowhead102)" d="M1230.0833187103271,1029.8499870300293L1230.0833187103271,1031.9333203633626C1230.0833187103271,1034.0166536966958,1230.0833187103271,1038.1833203633626,1157.5711779496835,1045.1813662033117C1085.0590371890398,1052.1794120432605,940.0347556677527,1062.008837056492,867.5226149071091,1066.9235495631078L795.0104741464656,1071.8382620697234"/><defs><marker id="arrowhead102" viewBox="0 0 10 10" refX="9" refY="5" markerUnits="strokeWidth" markerWidth="8" markerHeight="6" orient="auto"><path d="M 0 0 L 10 5 L 0 10 z"/></marker></defs></g></g></g><style xmlns="http://www.w3.org/1999/xhtml">.node &gt; .shape {stroke: #555555;stroke-width: 0.6px;fill: #FFFFFF;} path {stroke: #555;background-color: #555;stroke-width: 1px;} .node.state.NotYetStarted &gt; .shape,.node.state.Container &gt; .shape {stroke-dasharray: 5 2;} .node.state.Failed &gt; .shape,rect.legend.Failed {fill: #DE322F;} .node.state.CaughtError &gt; .shape,rect.legend.CaughtError {fill: #FFA500;} .node.state.Succeeded &gt; .shape,rect.legend.Succeeded {fill: #2BD62E;} .node.state.InProgress &gt; .shape,rect.legend.InProgress {fill: #53c9ed;} .node.state.Cancelled &gt; .shape,rect.legend.Cancelled {fill: #dddddd;} .node.anchor &gt; .shape {fill: #FFDA75;} .node.state.hovered:not(.selected):not(.NotYetStarted) &gt; .shape,.node.selected &gt; .shape {stroke: #555555;stroke-width: 2px;} .node.state.Container.Failed &gt; .shape {fill: #EE9592;} .node.state.Container.CaughtError &gt; .shape {fill: #FFD27F;} .node.state.Container.Succeeded &gt; .shape {fill: #91EA9A;} .node.state.Container.InProgress &gt; .shape {fill :#A9E4F7;} .node.state.Container.Cancelled &gt; .shape {fill: #EEEEEE;} marker {fill: #555555;} .node.anchor,.node.state.NotYetStarted {cursor: default;} .node.state {cursor: pointer;} tspan .label {font-weight: normal;font-size: 12px;text-shadow: none;} </style></svg>