<!DOCTYPE svg PUBLIC "-//W3C//DTD SVG 1.1//EN" "https://www.w3.org/Graphics/SVG/1.1/DTD/svg11.dtd">
<svg xmlns="http://www.w3.org/2000/svg" id="sfn-svg" class="sfn-workflow-graph" width="1524" height="1191">
    
    
<g transform="translate(12,19.899999618530273)"><g class="nodes"><g class="node-container" transform="translate(1148.6124877929688,18.524999618530273)"><g class="node anchor"><circle class="shape" x="-16.424999237060547" y="-8.524999618530273" r="26.424999237060547"/><text class="label"><tspan xml:space="preserve" text-anchor="middle" alignment-baseline="central">Start</tspan></text></g></g><g class="node-container" transform="translate(872.0666561126709,1135.4249858856201)"><g class="node anchor"><circle class="shape" x="-12.725000381469727" y="-8.524999618530273" r="22.725000381469727"/><text class="label"><tspan xml:space="preserve" text-anchor="middle" alignment-baseline="central">End</tspan></text></g></g><g class="node-container" transform="translate(1148.6124877929688,80.57499885559082)"><g class="node state Task NotYetStarted"><rect class="shape" rx="5" ry="5" x="-67.0250015258789" y="-18.524999618530273" width="134.0500030517578" height="37.04999923706055"/><text class="label"><tspan xml:space="preserve" text-anchor="middle" alignment-baseline="central">DemoIDP-Decider</tspan></text></g></g><g class="node-container" transform="translate(1148.6124877929688,142.62499809265137)"><g class="node state Choice NotYetStarted"><rect class="shape" rx="5" ry="5" x="-75.91666412353516" y="-18.524999618530273" width="151.8333282470703" height="37.04999923706055"/><text class="label"><tspan xml:space="preserve" text-anchor="middle" alignment-baseline="central">NumberPagesChoice</tspan></text></g></g><g class="node-container" transform="translate(1425.1583194732666,1073.3749866485596)"><g class="node state Fail NotYetStarted"><rect class="shape" rx="5" ry="5" x="-73.89166641235352" y="-18.524999618530273" width="147.78333282470703" height="37.04999923706055"/><text class="label"><tspan xml:space="preserve" text-anchor="middle" alignment-baseline="central">NumberOfPagesFail</tspan></text></g></g><g class="node-container" transform="translate(872.0666561126709,204.6749973297119)"><g class="node state Task NotYetStarted"><rect class="shape" rx="5" ry="5" x="-45.83333206176758" y="-18.524999618530273" width="91.66666412353516" height="37.04999923706055"/><text class="label"><tspan xml:space="preserve" text-anchor="middle" alignment-baseline="central">Randomize</tspan></text></g></g><g class="node-container" transform="translate(872.0666561126709,266.72499656677246)"><g class="node state Choice NotYetStarted"><rect class="shape" rx="5" ry="5" x="-31.58333396911621" y="-18.524999618530273" width="63.16666793823242" height="37.04999923706055"/><text class="label"><tspan xml:space="preserve" text-anchor="middle" alignment-baseline="central">Choice</tspan></text></g></g><g class="node-container" transform="translate(1268.1624870300293,328.774995803833)"><g class="node state Task NotYetStarted"><rect class="shape" rx="5" ry="5" x="-54.70833206176758" y="-18.524999618530273" width="109.41666412353516" height="37.04999923706055"/><text class="label"><tspan xml:space="preserve" text-anchor="middle" alignment-baseline="central">TextractAsync</tspan></text></g></g><g class="node-container" transform="translate(784.5541572570801,390.82499504089355)"><g class="node state Task NotYetStarted"><rect class="shape" rx="5" ry="5" x="-51.108333587646484" y="-18.524999618530273" width="102.21666717529297" height="37.04999923706055"/><text class="label"><tspan xml:space="preserve" text-anchor="middle" alignment-baseline="central">TextractSync</tspan></text></g></g><g class="node-container" transform="translate(872.0666561126709,452.8749942779541)"><g class="node state Task NotYetStarted"><rect class="shape" rx="5" ry="5" x="-53.04166793823242" y="-18.524999618530273" width="106.08333587646484" height="37.04999923706055"/><text class="label"><tspan xml:space="preserve" text-anchor="middle" alignment-baseline="central">GenerateText</tspan></text></g></g><g class="node-container" transform="translate(872.0666561126709,514.9249935150146)"><g class="node state Task NotYetStarted"><rect class="shape" rx="5" ry="5" x="-52.224998474121094" y="-18.524999618530273" width="104.44999694824219" height="37.04999923706055"/><text class="label"><tspan xml:space="preserve" text-anchor="middle" alignment-baseline="central">Classification</tspan></text></g></g><g class="node-container" transform="translate(1268.1624870300293,390.82499504089355)"><g class="node state Task NotYetStarted"><rect class="shape" rx="5" ry="5" x="-83.91666412353516" y="-18.524999618530273" width="167.8333282470703" height="37.04999923706055"/><text class="label"><tspan xml:space="preserve" text-anchor="middle" alignment-baseline="central">TextractAsyncToJSON2</tspan></text></g></g><g class="node-container" transform="translate(872.0666561126709,576.9749927520752)"><g class="node state Choice NotYetStarted"><rect class="shape" rx="5" ry="5" x="-56.54166793823242" y="-18.524999618530273" width="113.08333587646484" height="37.04999923706055"/><text class="label"><tspan xml:space="preserve" text-anchor="middle" alignment-baseline="central">RouteDocType</tspan></text></g></g><g class="node-container" transform="translate(672.6083278656006,1073.3749866485596)"><g class="node state Pass NotYetStarted"><rect class="shape" rx="5" ry="5" x="-86.60832977294922" y="-18.524999618530273" width="173.21665954589844" height="37.04999923706055"/><text class="label"><tspan xml:space="preserve" text-anchor="middle" alignment-baseline="central">DocumentTypeNotClear</tspan></text></g></g><g class="node-container" transform="translate(872.0666561126709,1073.3749866485596)"><g class="node state Pass NotYetStarted"><rect class="shape" rx="5" ry="5" x="-72.8499984741211" y="-18.524999618530273" width="145.6999969482422" height="37.04999923706055"/><text class="label"><tspan xml:space="preserve" text-anchor="middle" alignment-baseline="central">SendToOpenSearch</tspan></text></g></g><g class="node-container" transform="translate(1046.9083194732666,1073.3749866485596)"><g class="node state Task NotYetStarted"><rect class="shape" rx="5" ry="5" x="-61.99166488647461" y="-18.524999618530273" width="123.98332977294922" height="37.04999923706055"/><text class="label"><tspan xml:space="preserve" text-anchor="middle" alignment-baseline="central">TextractSyncID2</tspan></text></g></g><g class="node-container" transform="translate(1230.0833187103271,1073.3749866485596)"><g class="node state Task NotYetStarted"><rect class="shape" rx="5" ry="5" x="-81.18333435058594" y="-18.524999618530273" width="162.36666870117188" height="37.04999923706055"/><text class="label"><tspan xml:space="preserve" text-anchor="middle" alignment-baseline="central">TextractSyncExpense2</tspan></text></g></g><g class="node-container" transform="translate(250.87083435058594,639.0249919891357)"><g class="node state Task NotYetStarted"><rect class="shape" rx="5" ry="5" x="-83.55000305175781" y="-18.524999618530273" width="167.10000610351562" height="37.04999923706055"/><text class="label"><tspan xml:space="preserve" text-anchor="middle" alignment-baseline="central">DemoIDP-Configurator</tspan></text></g></g><g class="node-container" transform="translate(250.87083435058594,701.0749912261963)"><g class="node state Choice NotYetStarted"><rect class="shape" rx="5" ry="5" x="-81.59166717529297" y="-18.524999618530273" width="163.18333435058594" height="37.04999923706055"/><text class="label"><tspan xml:space="preserve" text-anchor="middle" alignment-baseline="central">NumberQueriesChoice</tspan></text></g></g><g class="node-container" transform="translate(329.78333282470703,887.2249889373779)"><g class="node state Task NotYetStarted"><rect class="shape" rx="5" ry="5" x="-90.625" y="-18.524999618530273" width="181.25" height="37.04999923706055"/><text class="label"><tspan xml:space="preserve" text-anchor="middle" alignment-baseline="central">TextractAsyncWithConfig</tspan></text></g></g><g class="node-container" transform="translate(482.2666645050049,1073.3749866485596)"><g class="node state Fail NotYetStarted"><rect class="shape" rx="5" ry="5" x="-63.733333587646484" y="-18.524999618530273" width="127.46666717529297" height="37.04999923706055"/><text class="label"><tspan xml:space="preserve" text-anchor="middle" alignment-baseline="central">TooManyQueries</tspan></text></g></g><g class="node-container" transform="translate(87.0250015258789,763.1249904632568)"><g class="node state Task NotYetStarted"><rect class="shape" rx="5" ry="5" x="-49.93333435058594" y="-18.524999618530273" width="99.86666870117188" height="37.04999923706055"/><text class="label"><tspan xml:space="preserve" text-anchor="middle" alignment-baseline="central">Randomize2</tspan></text></g></g><g class="node-container" transform="translate(87.0250015258789,825.1749897003174)"><g class="node state Choice NotYetStarted"><rect class="shape" rx="5" ry="5" x="-35.683332443237305" y="-18.524999618530273" width="71.36666488647461" height="37.04999923706055"/><text class="label"><tspan xml:space="preserve" text-anchor="middle" alignment-baseline="central">Choice2</tspan></text></g></g><g class="node-container" transform="translate(87.0250015258789,949.2749881744385)"><g class="node state Task NotYetStarted"><rect class="shape" rx="5" ry="5" x="-87.0250015258789" y="-18.524999618530273" width="174.0500030517578" height="37.04999923706055"/><text class="label"><tspan xml:space="preserve" text-anchor="middle" alignment-baseline="central">TextractSyncWithConfig</tspan></text></g></g><g class="node-container" transform="translate(208.40416717529297,1011.324987411499)"><g class="node state Task NotYetStarted"><rect class="shape" rx="5" ry="5" x="-64.5" y="-18.524999618530273" width="129" height="37.04999923706055"/><text class="label"><tspan xml:space="preserve" text-anchor="middle" alignment-baseline="central">GenerateCsvTask</tspan></text></g></g><g class="node-container" transform="translate(208.40416717529297,1073.3749866485596)"><g class="node state Task NotYetStarted"><rect class="shape" rx="5" ry="5" x="-50.5" y="-18.524999618530273" width="101" height="37.04999923706055"/><text class="label"><tspan xml:space="preserve" text-anchor="middle" alignment-baseline="central">CsvToAurora</tspan></text></g></g><g class="node-container" transform="translate(329.78333282470703,949.2749881744385)"><g class="node state Task NotYetStarted"><rect class="shape" rx="5" ry="5" x="-115.73332977294922" y="-18.524999618530273" width="231.46665954589844" height="37.04999923706055"/><text class="label"><tspan xml:space="preserve" text-anchor="middle" alignment-baseline="central">TextractAsyncWithConfigToJSON</tspan></text></g></g></g><g class="edges"><g class="edge"><path class="path" style="fill: none;" marker-end="url(#arrowhead1)" d="M1148.6124877929688,99.0999984741211L1148.6124877929685,101.18333180745442C1148.6124877929688,103.26666514078775,1148.6124877929688,107.43333180745442,1148.6124877929685,111.5999984741211C1148.6124877929688,115.76666514078775,1148.6124877929688,119.93333180745441,1148.6124877929685,122.01666514078775L1148.6124877929688,124.0999984741211"/><defs><marker id="arrowhead1" viewBox="0 0 10 10" refX="9" refY="5" markerUnits="strokeWidth" markerWidth="8" markerHeight="6" orient="auto"><path d="M 0 0 L 10 5 L 0 10 z"/></marker></defs></g><g class="edge"><path class="path" style="fill: none;" marker-end="url(#arrowhead2)" d="M1148.6124877929688,44.94999885559082L1148.6124877929685,45.71666558583577C1148.6124877929688,46.48333231608073,1148.6124877929688,48.01666577657063,1148.6124877929685,50.866665840148926C1148.6124877929688,53.71666590372721,1148.6124877929688,57.883332570393875,1148.6124877929685,59.966665903727204L1148.6124877929688,62.04999923706055"/><defs><marker id="arrowhead2" viewBox="0 0 10 10" refX="9" refY="5" markerUnits="strokeWidth" markerWidth="8" markerHeight="6" orient="auto"><path d="M 0 0 L 10 5 L 0 10 z"/></marker></defs></g><g class="edge"><path class="path" style="fill: none;" marker-end="url(#arrowhead3)" d="M1224.529151916504,151.14190272709055L1257.9673465092976,154.8932518911057C1291.4055411020913,158.64460105512092,1358.281930287679,166.14729938315128,1391.7201248804727,175.0694818169215C1425.1583194732666,183.9916642506917,1425.1583194732666,194.33333079020179,1425.1583194732664,204.67499732971189C1425.1583194732666,215.016663869222,1425.1583194732666,225.3583304087321,1425.1583194732664,235.69999694824216C1425.1583194732666,246.04166348775226,1425.1583194732666,256.38333002726233,1425.1583194732664,266.72499656677246C1425.1583194732666,277.06666310628253,1425.1583194732666,287.4083296457926,1425.1583194732664,297.74999618530273C1425.1583194732666,308.0916627248128,1425.1583194732666,318.4333292643229,1425.1583194732664,328.774995803833C1425.1583194732666,339.1166623433431,1425.1583194732666,349.45832888285315,1425.1583194732664,359.7999954223632C1425.1583194732666,370.14166196187335,1425.1583194732666,380.4833285013834,1425.1583194732664,390.82499504089355C1425.1583194732666,401.1666615804036,1425.1583194732666,411.5083281199137,1425.1583194732664,421.8499946594238C1425.1583194732666,432.1916611989339,1425.1583194732666,442.533327738444,1425.1583194732664,452.87499427795404C1425.1583194732666,463.2166608174641,1425.1583194732666,473.55832735697425,1425.1583194732664,483.8999938964844C1425.1583194732666,494.24166043599445,1425.1583194732666,504.5833269755045,1425.1583194732664,514.9249935150146C1425.1583194732666,525.2666600545247,1425.1583194732666,535.6083265940348,1425.1583194732664,545.9499931335449C1425.1583194732666,556.2916596730549,1425.1583194732666,566.6333262125651,1425.1583194732664,576.9749927520752C1425.1583194732666,587.3166592915852,1425.1583194732666,597.6583258310953,1425.1583194732664,607.9999923706055C1425.1583194732666,618.3416589101155,1425.1583194732666,628.6833254496256,1425.1583194732664,639.0249919891357C1425.1583194732666,649.3666585286458,1425.1583194732666,659.7083250681559,1425.1583194732664,670.049991607666C1425.1583194732666,680.391658147176,1425.1583194732666,690.7333246866862,1425.1583194732664,701.0749912261963C1425.1583194732666,711.4166577657063,1425.1583194732666,721.7583243052164,1425.1583194732664,732.0999908447266C1425.1583194732666,742.4416573842366,1425.1583194732666,752.7833239237467,1425.1583194732664,763.1249904632568C1425.1583194732666,773.4666570027669,1425.1583194732666,783.808323542277,1425.1583194732664,794.1499900817871C1425.1583194732666,804.4916566212971,1425.1583194732666,814.8333231608073,1425.1583194732664,825.1749897003174C1425.1583194732666,835.5166562398274,1425.1583194732666,845.8583227793374,1425.1583194732664,856.1999893188475C1425.1583194732666,866.5416558583577,1425.1583194732666,876.8833223978678,1425.1583194732664,887.2249889373778C1425.1583194732666,897.566655476888,1425.1583194732666,907.9083220163981,1425.1583194732664,918.2499885559082C1425.1583194732666,928.5916550954182,1425.1583194732666,938.9333216349282,1425.1583194732664,949.2749881744384C1425.1583194732666,959.6166547139485,1425.1583194732666,969.9583212534586,1425.1583194732664,980.2999877929686C1425.1583194732666,990.6416543324788,1425.1583194732666,1000.9833208719889,1425.1583194732664,1011.324987411499C1425.1583194732666,1021.666653951009,1425.1583194732666,1032.008320490519,1425.1583194732664,1039.2624870936074C1425.1583194732666,1046.5166536966958,1425.1583194732666,1050.6833203633626,1425.1583194732664,1052.766653696696L1425.1583194732666,1054.8499870300293"/><defs><marker id="arrowhead3" viewBox="0 0 10 10" refX="9" refY="5" markerUnits="strokeWidth" markerWidth="8" markerHeight="6" orient="auto"><path d="M 0 0 L 10 5 L 0 10 z"/></marker></defs></g><g class="edge"><path class="path" style="fill: none;" marker-end="url(#arrowhead4)" d="M1072.6958236694336,151.14190272709055L1039.2576290766397,154.8932518911057C1005.819434483846,158.64460105512092,938.9430452982583,166.14729938315128,905.5048507054646,171.98198188049977C872.0666561126708,177.8166643778483,872.0666561126708,181.98333104451496,872.0666561126707,184.0666643778483L872.0666561126709,186.14999771118164"/><defs><marker id="arrowhead4" viewBox="0 0 10 10" refX="9" refY="5" markerUnits="strokeWidth" markerWidth="8" markerHeight="6" orient="auto"><path d="M 0 0 L 10 5 L 0 10 z"/></marker></defs></g><g class="edge"><path class="path" style="fill: none;" marker-end="url(#arrowhead5)" d="M872.0666561126709,223.1999969482422L872.0666561126707,225.2833302815755C872.0666561126708,227.36666361490884,872.0666561126708,231.5333302815755,872.0666561126707,235.6999969482422C872.0666561126708,239.86666361490884,872.0666561126708,244.0333302815755,872.0666561126707,246.11666361490882L872.0666561126709,248.1999969482422"/><defs><marker id="arrowhead5" viewBox="0 0 10 10" refX="9" refY="5" markerUnits="strokeWidth" markerWidth="8" markerHeight="6" orient="auto"><path d="M 0 0 L 10 5 L 0 10 z"/></marker></defs></g><g class="edge"><path class="path" style="fill: none;" marker-end="url(#arrowhead6)" d="M903.6499900817871,269.1988244838055L964.4020729064941,273.95735310072166C1025.1541557312012,278.7158817176379,1146.6583213806152,288.23293895147026,1207.4104042053223,295.07480090171987C1268.1624870300293,301.91666285196936,1268.1624870300293,306.08332951863605,1268.1624870300293,308.1666628519694L1268.1624870300293,310.24999618530273"/><defs><marker id="arrowhead6" viewBox="0 0 10 10" refX="9" refY="5" markerUnits="strokeWidth" markerWidth="8" markerHeight="6" orient="auto"><path d="M 0 0 L 10 5 L 0 10 z"/></marker></defs></g><g class="edge"><path class="path" style="fill: none;" marker-end="url(#arrowhead7)" d="M840.4833221435547,277.92194485596127L831.1617946624755,281.2266200775182C821.8402671813965,284.53129529907505,803.1972122192383,291.1406457421889,793.8756847381591,299.6161542335009C784.5541572570801,308.0916627248128,784.5541572570801,318.4333292643229,784.55415725708,328.774995803833C784.5541572570801,339.1166623433431,784.5541572570801,349.45832888285315,784.55415725708,356.71249548594153C784.5541572570801,363.9666620890299,784.5541572570801,368.1333287556966,784.55415725708,370.21666208902997L784.5541572570801,372.2999954223633"/><defs><marker id="arrowhead7" viewBox="0 0 10 10" refX="9" refY="5" markerUnits="strokeWidth" markerWidth="8" markerHeight="6" orient="auto"><path d="M 0 0 L 10 5 L 0 10 z"/></marker></defs></g><g class="edge"><path class="path" style="fill: none;" marker-end="url(#arrowhead8)" d="M784.5541572570801,409.3499946594238L784.55415725708,411.4333279927571C784.5541572570801,413.51666132609046,784.5541572570801,417.68332799275714,790.4306345557374,421.84999465942377C796.3071118543949,426.01666132609046,808.0600664517096,430.18332799275714,813.9365437503669,432.26666132609046L819.8130210490244,434.3499946594238"/><defs><marker id="arrowhead8" viewBox="0 0 10 10" refX="9" refY="5" markerUnits="strokeWidth" markerWidth="8" markerHeight="6" orient="auto"><path d="M 0 0 L 10 5 L 0 10 z"/></marker></defs></g><g class="edge"><path class="path" style="fill: none;" marker-end="url(#arrowhead9)" d="M872.0666561126709,471.3999938964844L872.0666561126707,473.4833272298177C872.0666561126708,475.566660563151,872.0666561126708,479.7333272298177,872.0666561126707,483.8999938964844C872.0666561126708,488.066660563151,872.0666561126708,492.23332722981763,872.0666561126707,494.316660563151L872.0666561126709,496.3999938964844"/><defs><marker id="arrowhead9" viewBox="0 0 10 10" refX="9" refY="5" markerUnits="strokeWidth" markerWidth="8" markerHeight="6" orient="auto"><path d="M 0 0 L 10 5 L 0 10 z"/></marker></defs></g><g class="edge"><path class="path" style="fill: none;" marker-end="url(#arrowhead10)" d="M1268.1624870300293,409.3499946594238L1268.1624870300293,411.4333279927571C1268.1624870300293,413.51666132609046,1268.1624870300293,417.68332799275714,1210.986793200175,424.2450621089316C1153.8110993703206,430.8067962251062,1039.4597117106118,439.7635977907886,982.2840178807576,444.24199857362976L925.1083240509033,448.72039935647103"/><defs><marker id="arrowhead10" viewBox="0 0 10 10" refX="9" refY="5" markerUnits="strokeWidth" markerWidth="8" markerHeight="6" orient="auto"><path d="M 0 0 L 10 5 L 0 10 z"/></marker></defs></g><g class="edge"><path class="path" style="fill: none;" marker-end="url(#arrowhead11)" d="M1268.1624870300293,347.2999954223633L1268.1624870300293,349.3833287556966C1268.1624870300293,351.4666620890299,1268.1624870300293,355.6333287556966,1268.1624870300293,359.7999954223633C1268.1624870300293,363.9666620890299,1268.1624870300293,368.1333287556966,1268.1624870300293,370.21666208902997L1268.1624870300293,372.2999954223633"/><defs><marker id="arrowhead11" viewBox="0 0 10 10" refX="9" refY="5" markerUnits="strokeWidth" markerWidth="8" markerHeight="6" orient="auto"><path d="M 0 0 L 10 5 L 0 10 z"/></marker></defs></g><g class="edge"><path class="path" style="fill: none;" marker-end="url(#arrowhead12)" d="M872.0666561126709,533.4499931335449L872.0666561126707,535.5333264668782C872.0666561126708,537.6166598002116,872.0666561126708,541.7833264668782,872.0666561126707,545.9499931335449C872.0666561126708,550.1166598002116,872.0666561126708,554.2833264668782,872.0666561126707,556.3666598002116L872.0666561126709,558.4499931335449"/><defs><marker id="arrowhead12" viewBox="0 0 10 10" refX="9" refY="5" markerUnits="strokeWidth" markerWidth="8" markerHeight="6" orient="auto"><path d="M 0 0 L 10 5 L 0 10 z"/></marker></defs></g><g class="edge"><path class="path" style="fill: none;" marker-end="url(#arrowhead13)" d="M815.5249881744385,585.7698384806615L791.7055447896321,589.4748641289855C767.8861014048258,593.1798897773094,720.2472146352131,600.5899410739574,696.4277712504069,609.4657999920365C672.6083278656006,618.3416589101155,672.6083278656006,628.6833254496256,672.6083278656006,639.0249919891357C672.6083278656006,649.3666585286458,672.6083278656006,659.7083250681559,672.6083278656006,670.049991607666C672.6083278656006,680.391658147176,672.6083278656006,690.7333246866862,672.6083278656006,701.0749912261963C672.6083278656006,711.4166577657063,672.6083278656006,721.7583243052164,672.6083278656006,732.0999908447266C672.6083278656006,742.4416573842366,672.6083278656006,752.7833239237467,672.6083278656006,763.1249904632568C672.6083278656006,773.4666570027669,672.6083278656006,783.808323542277,672.6083278656006,794.1499900817871C672.6083278656006,804.4916566212971,672.6083278656006,814.8333231608073,672.6083278656006,825.1749897003174C672.6083278656006,835.5166562398274,672.6083278656006,845.8583227793374,672.6083278656006,856.1999893188475C672.6083278656006,866.5416558583577,672.6083278656006,876.8833223978678,672.6083278656006,887.2249889373778C672.6083278656006,897.566655476888,672.6083278656006,907.9083220163981,672.6083278656006,918.2499885559082C672.6083278656006,928.5916550954182,672.6083278656006,938.9333216349282,672.6083278656006,949.2749881744384C672.6083278656006,959.6166547139485,672.6083278656006,969.9583212534586,672.6083278656006,980.2999877929686C672.6083278656006,990.6416543324788,672.6083278656006,1000.9833208719889,672.6083278656006,1011.324987411499C672.6083278656006,1021.666653951009,672.6083278656006,1032.008320490519,672.6083278656006,1039.2624870936074C672.6083278656006,1046.5166536966958,672.6083278656006,1050.6833203633626,672.6083278656006,1052.766653696696L672.6083278656006,1054.8499870300293"/><defs><marker id="arrowhead13" viewBox="0 0 10 10" refX="9" refY="5" markerUnits="strokeWidth" markerWidth="8" markerHeight="6" orient="auto"><path d="M 0 0 L 10 5 L 0 10 z"/></marker></defs></g><g class="edge"><path class="path" style="fill: none;" marker-end="url(#arrowhead14)" d="M872.0666561126709,595.4999923706055L872.0666561126707,597.5833257039387C872.0666561126708,599.6666590372721,872.0666561126708,603.8333257039387,872.0666561126707,611.0874923070271C872.0666561126708,618.3416589101155,872.0666561126708,628.6833254496256,872.0666561126707,639.0249919891357C872.0666561126708,649.3666585286458,872.0666561126708,659.7083250681559,872.0666561126707,670.049991607666C872.0666561126708,680.391658147176,872.0666561126708,690.7333246866862,872.0666561126707,701.0749912261963C872.0666561126708,711.4166577657063,872.0666561126708,721.7583243052164,872.0666561126707,732.0999908447266C872.0666561126708,742.4416573842366,872.0666561126708,752.7833239237467,872.0666561126707,763.1249904632568C872.0666561126708,773.4666570027669,872.0666561126708,783.808323542277,872.0666561126707,794.1499900817871C872.0666561126708,804.4916566212971,872.0666561126708,814.8333231608073,872.0666561126707,825.1749897003174C872.0666561126708,835.5166562398274,872.0666561126708,845.8583227793374,872.0666561126707,856.1999893188475C872.0666561126708,866.5416558583577,872.0666561126708,876.8833223978678,872.0666561126707,887.2249889373778C872.0666561126708,897.566655476888,872.0666561126708,907.9083220163981,872.0666561126707,918.2499885559082C872.0666561126708,928.5916550954182,872.0666561126708,938.9333216349282,872.0666561126707,949.2749881744384C872.0666561126708,959.6166547139485,872.0666561126708,969.9583212534586,872.0666561126707,980.2999877929686C872.0666561126708,990.6416543324788,872.0666561126708,1000.9833208719889,872.0666561126707,1011.324987411499C872.0666561126708,1021.666653951009,872.0666561126708,1032.008320490519,872.0666561126707,1039.2624870936074C872.0666561126708,1046.5166536966958,872.0666561126708,1050.6833203633626,872.0666561126707,1052.766653696696L872.0666561126709,1054.8499870300293"/><defs><marker id="arrowhead14" viewBox="0 0 10 10" refX="9" refY="5" markerUnits="strokeWidth" markerWidth="8" markerHeight="6" orient="auto"><path d="M 0 0 L 10 5 L 0 10 z"/></marker></defs></g><g class="edge"><path class="path" style="fill: none;" marker-end="url(#arrowhead15)" d="M928.6083240509033,587.0081003792706L948.3249899546305,590.5067490444931C968.0416558583577,594.0053977097155,1007.4749876658121,601.0026950401605,1027.1916535695393,609.672176975138C1046.9083194732666,618.3416589101155,1046.9083194732666,628.6833254496256,1046.9083194732666,639.0249919891357C1046.9083194732666,649.3666585286458,1046.9083194732666,659.7083250681559,1046.9083194732666,670.049991607666C1046.9083194732666,680.391658147176,1046.9083194732666,690.7333246866862,1046.9083194732666,701.0749912261963C1046.9083194732666,711.4166577657063,1046.9083194732666,721.7583243052164,1046.9083194732666,732.0999908447266C1046.9083194732666,742.4416573842366,1046.9083194732666,752.7833239237467,1046.9083194732666,763.1249904632568C1046.9083194732666,773.4666570027669,1046.9083194732666,783.808323542277,1046.9083194732666,794.1499900817871C1046.9083194732666,804.4916566212971,1046.9083194732666,814.8333231608073,1046.9083194732666,825.1749897003174C1046.9083194732666,835.5166562398274,1046.9083194732666,845.8583227793374,1046.9083194732666,856.1999893188475C1046.9083194732666,866.5416558583577,1046.9083194732666,876.8833223978678,1046.9083194732666,887.2249889373778C1046.9083194732666,897.566655476888,1046.9083194732666,907.9083220163981,1046.9083194732666,918.2499885559082C1046.9083194732666,928.5916550954182,1046.9083194732666,938.9333216349282,1046.9083194732666,949.2749881744384C1046.9083194732666,959.6166547139485,1046.9083194732666,969.9583212534586,1046.9083194732666,980.2999877929686C1046.9083194732666,990.6416543324788,1046.9083194732666,1000.9833208719889,1046.9083194732666,1011.324987411499C1046.9083194732666,1021.666653951009,1046.9083194732666,1032.008320490519,1046.9083194732666,1039.2624870936074C1046.9083194732666,1046.5166536966958,1046.9083194732666,1050.6833203633626,1046.9083194732666,1052.766653696696L1046.9083194732666,1054.8499870300293"/><defs><marker id="arrowhead15" viewBox="0 0 10 10" refX="9" refY="5" markerUnits="strokeWidth" markerWidth="8" markerHeight="6" orient="auto"><path d="M 0 0 L 10 5 L 0 10 z"/></marker></defs></g><g class="edge"><path class="path" style="fill: none;" marker-end="url(#arrowhead16)" d="M928.6083240509033,581.8747792968878L978.8541564941406,586.2289814758408C1029.099988937378,590.5831836547936,1129.5916538238525,599.2915880126995,1179.8374862670898,608.8166234614075C1230.0833187103271,618.3416589101155,1230.0833187103271,628.6833254496256,1230.0833187103271,639.0249919891357C1230.0833187103271,649.3666585286458,1230.0833187103271,659.7083250681559,1230.0833187103271,670.049991607666C1230.0833187103271,680.391658147176,1230.0833187103271,690.7333246866862,1230.0833187103271,701.0749912261963C1230.0833187103271,711.4166577657063,1230.0833187103271,721.7583243052164,1230.0833187103271,732.0999908447266C1230.0833187103271,742.4416573842366,1230.0833187103271,752.7833239237467,1230.0833187103271,763.1249904632568C1230.0833187103271,773.4666570027669,1230.0833187103271,783.808323542277,1230.0833187103271,794.1499900817871C1230.0833187103271,804.4916566212971,1230.0833187103271,814.8333231608073,1230.0833187103271,825.1749897003174C1230.0833187103271,835.5166562398274,1230.0833187103271,845.8583227793374,1230.0833187103271,856.1999893188475C1230.0833187103271,866.5416558583577,1230.0833187103271,876.8833223978678,1230.0833187103271,887.2249889373778C1230.0833187103271,897.566655476888,1230.0833187103271,907.9083220163981,1230.0833187103271,918.2499885559082C1230.0833187103271,928.5916550954182,1230.0833187103271,938.9333216349282,1230.0833187103271,949.2749881744384C1230.0833187103271,959.6166547139485,1230.0833187103271,969.9583212534586,1230.0833187103271,980.2999877929686C1230.0833187103271,990.6416543324788,1230.0833187103271,1000.9833208719889,1230.0833187103271,1011.324987411499C1230.0833187103271,1021.666653951009,1230.0833187103271,1032.008320490519,1230.0833187103271,1039.2624870936074C1230.0833187103271,1046.5166536966958,1230.0833187103271,1050.6833203633626,1230.0833187103271,1052.766653696696L1230.0833187103271,1054.8499870300293"/><defs><marker id="arrowhead16" viewBox="0 0 10 10" refX="9" refY="5" markerUnits="strokeWidth" markerWidth="8" markerHeight="6" orient="auto"><path d="M 0 0 L 10 5 L 0 10 z"/></marker></defs></g><g class="edge"><path class="path" style="fill: none;" marker-end="url(#arrowhead17)" d="M815.5249881744385,579.7989094056655L721.4159625371296,584.4990898998221C627.3069368998209,589.1992703939788,439.08888562520343,598.5996313822922,344.97985998789466,605.3831452097821C250.87083435058594,612.1666590372721,250.87083435058594,616.3333257039387,250.87083435058594,618.4166590372721L250.87083435058594,620.4999923706055"/><defs><marker id="arrowhead17" viewBox="0 0 10 10" refX="9" refY="5" markerUnits="strokeWidth" markerWidth="8" markerHeight="6" orient="auto"><path d="M 0 0 L 10 5 L 0 10 z"/></marker></defs></g><g class="edge"><path class="path" style="fill: none;" marker-end="url(#arrowhead18)" d="M250.87083435058594,657.549991607666L250.87083435058594,659.6333249409994C250.87083435058594,661.7166582743326,250.87083435058594,665.8833249409993,250.87083435058594,670.0499916076659C250.87083435058594,674.2166582743326,250.87083435058594,678.3833249409993,250.87083435058594,680.4666582743326L250.87083435058594,682.549991607666"/><defs><marker id="arrowhead18" viewBox="0 0 10 10" refX="9" refY="5" markerUnits="strokeWidth" markerWidth="8" markerHeight="6" orient="auto"><path d="M 0 0 L 10 5 L 0 10 z"/></marker></defs></g><g class="edge"><path class="path" style="fill: none;" marker-end="url(#arrowhead19)" d="M250.87083435058594,719.5999908447266L250.87083435058594,721.6833241780598C250.87083435058594,723.7666575113932,250.87083435058594,727.9333241780598,250.87083435058594,735.1874907811483C250.87083435058594,742.4416573842366,250.87083435058594,752.7833239237467,250.87083435058594,763.1249904632568C250.87083435058594,773.4666570027669,250.87083435058594,783.808323542277,250.87083435058594,794.1499900817871C250.87083435058594,804.4916566212971,250.87083435058594,814.8333231608073,250.87083435058594,825.1749897003174C250.87083435058594,835.5166562398274,250.87083435058594,845.8583227793374,256.1698203460462,853.1124893824258C261.4688063415065,860.3666559855142,272.066778332427,864.5333226521809,277.3657643278873,866.6166559855143L282.66475032334756,868.6999893188477"/><defs><marker id="arrowhead19" viewBox="0 0 10 10" refX="9" refY="5" markerUnits="strokeWidth" markerWidth="8" markerHeight="6" orient="auto"><path d="M 0 0 L 10 5 L 0 10 z"/></marker></defs></g><g class="edge"><path class="path" style="fill: none;" marker-end="url(#arrowhead20)" d="M332.4625015258789,712.0146068679277L357.42986202239985,715.3621708640608C382.3972225189209,718.709734860194,432.3319435119629,725.4048628524602,457.29930400848383,733.9232601183485C482.2666645050049,742.4416573842366,482.2666645050049,752.7833239237467,482.2666645050048,763.1249904632568C482.2666645050049,773.4666570027669,482.2666645050049,783.808323542277,482.2666645050048,794.1499900817871C482.2666645050049,804.4916566212971,482.2666645050049,814.8333231608073,482.2666645050048,825.1749897003174C482.2666645050049,835.5166562398274,482.2666645050049,845.8583227793374,482.2666645050048,856.1999893188475C482.2666645050049,866.5416558583577,482.2666645050049,876.8833223978678,482.2666645050048,887.2249889373778C482.2666645050049,897.566655476888,482.2666645050049,907.9083220163981,482.2666645050048,918.2499885559082C482.2666645050049,928.5916550954182,482.2666645050049,938.9333216349282,482.2666645050048,949.2749881744384C482.2666645050049,959.6166547139485,482.2666645050049,969.9583212534586,482.2666645050048,980.2999877929686C482.2666645050049,990.6416543324788,482.2666645050049,1000.9833208719889,482.2666645050048,1011.324987411499C482.2666645050049,1021.666653951009,482.2666645050049,1032.008320490519,482.2666645050048,1039.2624870936074C482.2666645050049,1046.5166536966958,482.2666645050049,1050.6833203633626,482.2666645050048,1052.766653696696L482.2666645050049,1054.8499870300293"/><defs><marker id="arrowhead20" viewBox="0 0 10 10" refX="9" refY="5" markerUnits="strokeWidth" markerWidth="8" markerHeight="6" orient="auto"><path d="M 0 0 L 10 5 L 0 10 z"/></marker></defs></g><g class="edge"><path class="path" style="fill: none;" marker-end="url(#arrowhead21)" d="M169.27916717529297,716.524767392899L155.57013956705728,719.1206379682036C141.8611119588216,721.7165085435081,114.44305674235025,726.9082496941173,100.73402913411458,731.5874536027552C87.0250015258789,736.2666575113932,87.0250015258789,740.4333241780598,87.02500152587889,742.5166575113932L87.0250015258789,744.5999908447266"/><defs><marker id="arrowhead21" viewBox="0 0 10 10" refX="9" refY="5" markerUnits="strokeWidth" markerWidth="8" markerHeight="6" orient="auto"><path d="M 0 0 L 10 5 L 0 10 z"/></marker></defs></g><g class="edge"><path class="path" style="fill: none;" marker-end="url(#arrowhead22)" d="M87.0250015258789,781.6499900817871L87.02500152587889,783.7333234151204C87.0250015258789,785.8166567484537,87.0250015258789,789.9833234151204,87.02500152587889,794.1499900817871C87.0250015258789,798.3166567484537,87.0250015258789,802.4833234151204,87.02500152587889,804.5666567484536L87.0250015258789,806.6499900817871"/><defs><marker id="arrowhead22" viewBox="0 0 10 10" refX="9" refY="5" markerUnits="strokeWidth" markerWidth="8" markerHeight="6" orient="auto"><path d="M 0 0 L 10 5 L 0 10 z"/></marker></defs></g><g class="edge"><path class="path" style="fill: none;" marker-end="url(#arrowhead23)" d="M122.70833396911621,828.8271971704086L167.28194459279376,833.3893291951483C211.85555521647134,837.9514612198882,301.0027764638265,847.0757252693679,341.52275657254864,853.721190627441C382.04273668127075,860.3666559855142,373.93547565135987,864.5333226521809,369.8818451364044,866.6166559855143L365.828214621449,868.6999893188477"/><defs><marker id="arrowhead23" viewBox="0 0 10 10" refX="9" refY="5" markerUnits="strokeWidth" markerWidth="8" markerHeight="6" orient="auto"><path d="M 0 0 L 10 5 L 0 10 z"/></marker></defs></g><g class="edge"><path class="path" style="fill: none;" marker-end="url(#arrowhead24)" d="M87.0250015258789,843.6999893188477L87.02500152587889,845.7833226521809C87.0250015258789,847.8666559855143,87.0250015258789,852.0333226521809,87.02500152587889,859.2874892552693C87.0250015258789,866.5416558583577,87.0250015258789,876.8833223978678,87.02500152587889,887.2249889373778C87.0250015258789,897.566655476888,87.0250015258789,907.9083220163981,87.02500152587889,915.1624886194865C87.0250015258789,922.4166552225748,87.0250015258789,926.5833218892415,87.02500152587889,928.6666552225748L87.0250015258789,930.7499885559082"/><defs><marker id="arrowhead24" viewBox="0 0 10 10" refX="9" refY="5" markerUnits="strokeWidth" markerWidth="8" markerHeight="6" orient="auto"><path d="M 0 0 L 10 5 L 0 10 z"/></marker></defs></g><g class="edge"><path class="path" style="fill: none;" marker-end="url(#arrowhead25)" d="M87.0250015258789,967.7999877929688L87.02500152587889,969.883321126302C87.0250015258789,971.9666544596354,87.0250015258789,976.133321126302,96.50486246744791,980.639744785906C105.98472340901692,985.14616844551,124.94444529215494,989.9923490980514,134.42430623372394,992.415439424322L143.90416717529297,994.8385297505927"/><defs><marker id="arrowhead25" viewBox="0 0 10 10" refX="9" refY="5" markerUnits="strokeWidth" markerWidth="8" markerHeight="6" orient="auto"><path d="M 0 0 L 10 5 L 0 10 z"/></marker></defs></g><g class="edge"><path class="path" style="fill: none;" marker-end="url(#arrowhead26)" d="M208.40416717529297,1029.8499870300293L208.40416717529297,1031.9333203633626C208.40416717529297,1034.0166536966958,208.40416717529297,1038.1833203633626,208.40416717529297,1042.3499870300293C208.40416717529297,1046.5166536966958,208.40416717529297,1050.6833203633626,208.40416717529297,1052.766653696696L208.40416717529297,1054.8499870300293"/><defs><marker id="arrowhead26" viewBox="0 0 10 10" refX="9" refY="5" markerUnits="strokeWidth" markerWidth="8" markerHeight="6" orient="auto"><path d="M 0 0 L 10 5 L 0 10 z"/></marker></defs></g><g class="edge"><path class="path" style="fill: none;" marker-end="url(#arrowhead27)" d="M329.78333282470703,967.7999877929688L329.78333282470703,969.883321126302C329.78333282470703,971.9666544596354,329.78333282470703,976.133321126302,320.303471883138,980.639744785906C310.823610941569,985.14616844551,291.86388905843097,989.9923490980514,282.38402811686194,992.415439424322L272.90416717529297,994.8385297505927"/><defs><marker id="arrowhead27" viewBox="0 0 10 10" refX="9" refY="5" markerUnits="strokeWidth" markerWidth="8" markerHeight="6" orient="auto"><path d="M 0 0 L 10 5 L 0 10 z"/></marker></defs></g><g class="edge"><path class="path" style="fill: none;" marker-end="url(#arrowhead28)" d="M329.78333282470703,905.7499885559082L329.78333282470703,907.8333218892413C329.78333282470703,909.9166552225747,329.78333282470703,914.0833218892415,329.78333282470703,918.2499885559082C329.78333282470703,922.4166552225748,329.78333282470703,926.5833218892415,329.78333282470703,928.6666552225748L329.78333282470703,930.7499885559082"/><defs><marker id="arrowhead28" viewBox="0 0 10 10" refX="9" refY="5" markerUnits="strokeWidth" markerWidth="8" markerHeight="6" orient="auto"><path d="M 0 0 L 10 5 L 0 10 z"/></marker></defs></g><g class="edge"><path class="path" style="fill: none;" marker-end="url(#arrowhead29)" d="M208.40416717529297,1091.8999862670898L208.40416717529297,1093.983319600423C208.40416717529297,1096.0666529337564,208.40416717529297,1100.233319600423,315.23121374672553,1107.3106207025753C422.05826031815803,1114.3879218047277,635.7123534610231,1124.3758573423654,742.5394000324557,1129.3698251111844L849.3664466038882,1134.3637928800033"/><defs><marker id="arrowhead29" viewBox="0 0 10 10" refX="9" refY="5" markerUnits="strokeWidth" markerWidth="8" markerHeight="6" orient="auto"><path d="M 0 0 L 10 5 L 0 10 z"/></marker></defs></g><g class="edge"><path class="path" style="fill: none;" marker-end="url(#arrowhead30)" d="M482.2666645050049,1091.8999862670898L482.2666645050048,1093.983319600423C482.2666645050049,1096.0666529337564,482.2666645050049,1100.233319600423,543.4577697314307,1107.1869814539739C604.6488749578566,1114.1406433075244,727.0310854107083,1123.8813003479593,788.2221906371343,1128.7516288681768L849.4132958635602,1133.621957388394"/><defs><marker id="arrowhead30" viewBox="0 0 10 10" refX="9" refY="5" markerUnits="strokeWidth" markerWidth="8" markerHeight="6" orient="auto"><path d="M 0 0 L 10 5 L 0 10 z"/></marker></defs></g><g class="edge"><path class="path" style="fill: none;" marker-end="url(#arrowhead31)" d="M672.6083278656006,1091.8999862670898L672.6083278656006,1093.983319600423C672.6083278656006,1096.0666529337564,672.6083278656006,1100.233319600423,702.108886108411,1106.9053548258926C731.6094443512213,1113.5773900513618,790.6105608368421,1122.7547938356338,820.1111190796524,1127.3434957277698L849.6116773224629,1131.932197619906"/><defs><marker id="arrowhead31" viewBox="0 0 10 10" refX="9" refY="5" markerUnits="strokeWidth" markerWidth="8" markerHeight="6" orient="auto"><path d="M 0 0 L 10 5 L 0 10 z"/></marker></defs></g><g class="edge"><path class="path" style="fill: none;" marker-end="url(#arrowhead32)" d="M872.0666561126709,1091.8999862670898L872.0666561126707,1093.983319600423C872.0666561126708,1096.0666529337564,872.0666561126708,1100.233319600423,872.0666561126707,1103.6999861399333C872.0666561126708,1107.1666526794434,872.0666561126708,1109.9333190917969,872.0666561126707,1111.3166522979736L872.0666561126709,1112.6999855041504"/><defs><marker id="arrowhead32" viewBox="0 0 10 10" refX="9" refY="5" markerUnits="strokeWidth" markerWidth="8" markerHeight="6" orient="auto"><path d="M 0 0 L 10 5 L 0 10 z"/></marker></defs></g><g class="edge"><path class="path" style="fill: none;" marker-end="url(#arrowhead33)" d="M1046.9083194732666,1091.8999862670898L1046.9083194732666,1093.983319600423C1046.9083194732666,1096.0666529337564,1046.9083194732666,1100.233319600423,1021.4972856683721,1106.825745897928C996.0862518634776,1113.4181721954328,945.2641842536887,1122.4363581237758,919.8531504487942,1126.9454510879473L894.4421166438998,1131.454544052119"/><defs><marker id="arrowhead33" viewBox="0 0 10 10" refX="9" refY="5" markerUnits="strokeWidth" markerWidth="8" markerHeight="6" orient="auto"><path d="M 0 0 L 10 5 L 0 10 z"/></marker></defs></g><g class="edge"><path class="path" style="fill: none;" marker-end="url(#arrowhead34)" d="M1230.0833187103271,1091.8999862670898L1230.0833187103271,1093.983319600423C1230.0833187103271,1096.0666529337564,1230.0833187103271,1100.233319600423,1174.1872332924133,1107.1604946035422C1118.2911478744995,1114.0876696066612,1006.4989770386719,1123.7753529462323,950.6028916207581,1128.619194616018L894.7068062028443,1133.4630362858036"/><defs><marker id="arrowhead34" viewBox="0 0 10 10" refX="9" refY="5" markerUnits="strokeWidth" markerWidth="8" markerHeight="6" orient="auto"><path d="M 0 0 L 10 5 L 0 10 z"/></marker></defs></g><g class="edge"><path class="path" style="fill: none;" marker-end="url(#arrowhead35)" d="M1425.1583194732666,1091.8999862670898L1425.1583194732664,1093.983319600423C1425.1583194732666,1096.0666529337564,1425.1583194732666,1100.233319600423,1336.7579309619507,1107.2753644847087C1248.3575424506353,1114.317409368994,1071.556765428004,1124.2348324708983,983.156376916688,1129.1935440218504L894.7559884053726,1134.1522555728025"/><defs><marker id="arrowhead35" viewBox="0 0 10 10" refX="9" refY="5" markerUnits="strokeWidth" markerWidth="8" markerHeight="6" orient="auto"><path d="M 0 0 L 10 5 L 0 10 z"/></marker></defs></g></g></g><style xmlns="http://www.w3.org/1999/xhtml">.node &gt; .shape {stroke: #555555;stroke-width: 0.6px;fill: #FFFFFF;} path {stroke: #555;background-color: #555;stroke-width: 1px;} .node.state.NotYetStarted &gt; .shape,.node.state.Container &gt; .shape {stroke-dasharray: 5 2;} .node.state.Failed &gt; .shape,rect.legend.Failed {fill: #DE322F;} .node.state.CaughtError &gt; .shape,rect.legend.CaughtError {fill: #FFA500;} .node.state.Succeeded &gt; .shape,rect.legend.Succeeded {fill: #2BD62E;} .node.state.InProgress &gt; .shape,rect.legend.InProgress {fill: #53c9ed;} .node.state.Cancelled &gt; .shape,rect.legend.Cancelled {fill: #dddddd;} .node.anchor &gt; .shape {fill: #FFDA75;} .node.state.hovered:not(.selected):not(.NotYetStarted) &gt; .shape,.node.selected &gt; .shape {stroke: #555555;stroke-width: 2px;} .node.state.Container.Failed &gt; .shape {fill: #EE9592;} .node.state.Container.CaughtError &gt; .shape {fill: #FFD27F;} .node.state.Container.Succeeded &gt; .shape {fill: #91EA9A;} .node.state.Container.InProgress &gt; .shape {fill :#A9E4F7;} .node.state.Container.Cancelled &gt; .shape {fill: #EEEEEE;} marker {fill: #555555;} .node.anchor,.node.state.NotYetStarted {cursor: default;} .node.state {cursor: pointer;} tspan .label {font-weight: normal;font-size: 12px;text-shadow: none;} </style></svg>