<!DOCTYPE svg PUBLIC "-//W3C//DTD SVG 1.1//EN" "https://www.w3.org/Graphics/SVG/1.1/DTD/svg11.dtd">
<svg xmlns="http://www.w3.org/2000/svg" id="sfn-svg" class="sfn-workflow-graph" width="522" height="384">
    
    
<g transform="translate(12,19.899999618530273)"><g class="nodes"><g class="node-container" transform="translate(216.10833358764648,18.524999618530273)"><g class="node anchor"><circle class="shape" x="-16.424999237060547" y="-8.524999618530273" r="26.424999237060547"/><text class="label"><tspan xml:space="preserve" text-anchor="middle" alignment-baseline="central">Start</tspan></text></g></g><g class="node-container" transform="translate(216.10833358764648,328.774995803833)"><g class="node anchor"><circle class="shape" x="-12.725000381469727" y="-8.524999618530273" r="22.725000381469727"/><text class="label"><tspan xml:space="preserve" text-anchor="middle" alignment-baseline="central">End</tspan></text></g></g><g class="node-container" transform="translate(216.10833358764648,80.57499885559082)"><g class="node state Task NotYetStarted"><rect class="shape" rx="5" ry="5" x="-135.7750015258789" y="-18.524999618530273" width="271.5500030517578" height="37.04999923706055"/><text class="label"><tspan xml:space="preserve" text-anchor="middle" alignment-baseline="central">SimpleSyncAndAsyncWorkflow-Decider</tspan></text></g></g><g class="node-container" transform="translate(216.10833358764648,142.62499809265137)"><g class="node state Choice NotYetStarted"><rect class="shape" rx="5" ry="5" x="-75.91666412353516" y="-18.524999618530273" width="151.8333282470703" height="37.04999923706055"/><text class="label"><tspan xml:space="preserve" text-anchor="middle" alignment-baseline="central">NumberPagesChoice</tspan></text></g></g><g class="node-container" transform="translate(216.10833358764648,266.72499656677246)"><g class="node state Fail NotYetStarted"><rect class="shape" rx="5" ry="5" x="-73.89166641235352" y="-18.524999618530273" width="147.78333282470703" height="37.04999923706055"/><text class="label"><tspan xml:space="preserve" text-anchor="middle" alignment-baseline="central">NumberOfPagesFail</tspan></text></g></g><g class="node-container" transform="translate(413.91666412353516,204.6749973297119)"><g class="node state Task NotYetStarted"><rect class="shape" rx="5" ry="5" x="-54.70833206176758" y="-18.524999618530273" width="109.41666412353516" height="37.04999923706055"/><text class="label"><tspan xml:space="preserve" text-anchor="middle" alignment-baseline="central">TextractAsync</tspan></text></g></g><g class="node-container" transform="translate(51.108333587646484,266.72499656677246)"><g class="node state Task NotYetStarted"><rect class="shape" rx="5" ry="5" x="-51.108333587646484" y="-18.524999618530273" width="102.21666717529297" height="37.04999923706055"/><text class="label"><tspan xml:space="preserve" text-anchor="middle" alignment-baseline="central">TextractSync</tspan></text></g></g><g class="node-container" transform="translate(413.91666412353516,266.72499656677246)"><g class="node state Task NotYetStarted"><rect class="shape" rx="5" ry="5" x="-83.91666412353516" y="-18.524999618530273" width="167.8333282470703" height="37.04999923706055"/><text class="label"><tspan xml:space="preserve" text-anchor="middle" alignment-baseline="central">TextractAsyncToJSON2</tspan></text></g></g></g><g class="edges"><g class="edge"><path class="path" style="fill: none;" marker-end="url(#arrowhead58)" d="M216.10833358764648,99.0999984741211L216.10833358764646,101.18333180745442C216.10833358764648,103.26666514078775,216.10833358764648,107.43333180745442,216.10833358764646,111.5999984741211C216.10833358764648,115.76666514078775,216.10833358764648,119.93333180745441,216.10833358764646,122.01666514078775L216.10833358764648,124.0999984741211"/><defs><marker id="arrowhead58" viewBox="0 0 10 10" refX="9" refY="5" markerUnits="strokeWidth" markerWidth="8" markerHeight="6" orient="auto"><path d="M 0 0 L 10 5 L 0 10 z"/></marker></defs></g><g class="edge"><path class="path" style="fill: none;" marker-end="url(#arrowhead59)" d="M216.10833358764648,44.94999885559082L216.10833358764646,45.71666558583577C216.10833358764648,46.48333231608073,216.10833358764648,48.01666577657063,216.10833358764646,50.866665840148926C216.10833358764648,53.71666590372721,216.10833358764648,57.883332570393875,216.10833358764646,59.966665903727204L216.10833358764648,62.04999923706055"/><defs><marker id="arrowhead59" viewBox="0 0 10 10" refX="9" refY="5" markerUnits="strokeWidth" markerWidth="8" markerHeight="6" orient="auto"><path d="M 0 0 L 10 5 L 0 10 z"/></marker></defs></g><g class="edge"><path class="path" style="fill: none;" marker-end="url(#arrowhead60)" d="M216.10833358764648,161.14999771118164L216.10833358764646,163.23333104451496C216.10833358764648,165.3166643778483,216.10833358764648,169.48333104451496,216.10833358764646,176.73749764760333C216.10833358764648,183.9916642506917,216.10833358764648,194.33333079020179,216.10833358764646,204.67499732971189C216.10833358764648,215.016663869222,216.10833358764648,225.3583304087321,216.10833358764646,232.61249701182044C216.10833358764648,239.86666361490884,216.10833358764648,244.0333302815755,216.10833358764646,246.11666361490882L216.10833358764648,248.1999969482422"/><defs><marker id="arrowhead60" viewBox="0 0 10 10" refX="9" refY="5" markerUnits="strokeWidth" markerWidth="8" markerHeight="6" orient="auto"><path d="M 0 0 L 10 5 L 0 10 z"/></marker></defs></g><g class="edge"><path class="path" style="fill: none;" marker-end="url(#arrowhead61)" d="M292.02499771118164,154.53205210342995L312.34027544657386,157.71837637138856C332.6555531819661,160.90470063934717,373.2861086527506,167.2773491752644,393.6013863881429,172.54700677655634C413.91666412353516,177.8166643778483,413.91666412353516,181.98333104451496,413.91666412353516,184.0666643778483L413.91666412353516,186.14999771118164"/><defs><marker id="arrowhead61" viewBox="0 0 10 10" refX="9" refY="5" markerUnits="strokeWidth" markerWidth="8" markerHeight="6" orient="auto"><path d="M 0 0 L 10 5 L 0 10 z"/></marker></defs></g><g class="edge"><path class="path" style="fill: none;" marker-end="url(#arrowhead62)" d="M140.19166946411133,156.8996312773348L125.34444681803386,159.69135901630926C110.49722417195638,162.48308675528375,80.80277887980142,168.06654223323267,65.95555623372395,176.02910324196222C51.108333587646484,183.9916642506917,51.108333587646484,194.33333079020179,51.10833358764648,204.67499732971189C51.108333587646484,215.016663869222,51.108333587646484,225.3583304087321,51.10833358764648,232.61249701182044C51.108333587646484,239.86666361490884,51.108333587646484,244.0333302815755,51.10833358764648,246.11666361490882L51.108333587646484,248.1999969482422"/><defs><marker id="arrowhead62" viewBox="0 0 10 10" refX="9" refY="5" markerUnits="strokeWidth" markerWidth="8" markerHeight="6" orient="auto"><path d="M 0 0 L 10 5 L 0 10 z"/></marker></defs></g><g class="edge"><path class="path" style="fill: none;" marker-end="url(#arrowhead63)" d="M51.108333587646484,285.24999618530273L51.10833358764648,287.33332951863605C51.108333587646484,289.41666285196936,51.108333587646484,293.58332951863605,74.88606314624917,300.1375964912734C98.66379270485186,306.69186346391075,146.21925182205726,315.6337307425188,169.99698138065992,320.1046643818229L193.77471093926266,324.5755980211269"/><defs><marker id="arrowhead63" viewBox="0 0 10 10" refX="9" refY="5" markerUnits="strokeWidth" markerWidth="8" markerHeight="6" orient="auto"><path d="M 0 0 L 10 5 L 0 10 z"/></marker></defs></g><g class="edge"><path class="path" style="fill: none;" marker-end="url(#arrowhead64)" d="M216.10833358764648,285.24999618530273L216.10833358764646,287.33332951863605C216.10833358764648,289.41666285196936,216.10833358764648,293.58332951863605,216.10833358764646,297.0499960581461C216.10833358764648,300.51666259765625,216.10833358764648,303.28332901000977,216.10833358764646,304.66666221618647L216.10833358764648,306.0499954223633"/><defs><marker id="arrowhead64" viewBox="0 0 10 10" refX="9" refY="5" markerUnits="strokeWidth" markerWidth="8" markerHeight="6" orient="auto"><path d="M 0 0 L 10 5 L 0 10 z"/></marker></defs></g><g class="edge"><path class="path" style="fill: none;" marker-end="url(#arrowhead65)" d="M413.91666412353516,223.1999969482422L413.91666412353516,225.2833302815755C413.91666412353516,227.36666361490884,413.91666412353516,231.5333302815755,413.91666412353516,235.6999969482422C413.91666412353516,239.86666361490884,413.91666412353516,244.0333302815755,413.91666412353516,246.11666361490882L413.91666412353516,248.1999969482422"/><defs><marker id="arrowhead65" viewBox="0 0 10 10" refX="9" refY="5" markerUnits="strokeWidth" markerWidth="8" markerHeight="6" orient="auto"><path d="M 0 0 L 10 5 L 0 10 z"/></marker></defs></g><g class="edge"><path class="path" style="fill: none;" marker-end="url(#arrowhead66)" d="M413.91666412353516,285.24999618530273L413.91666412353516,287.33332951863605C413.91666412353516,289.41666285196936,413.91666412353516,293.58332951863605,384.6903651859589,300.2506250689946C355.4640662483827,306.9179206193532,297.0114683732303,316.08584505340366,267.78516943565404,320.6698072704289L238.55887049807782,325.2537694874542"/><defs><marker id="arrowhead66" viewBox="0 0 10 10" refX="9" refY="5" markerUnits="strokeWidth" markerWidth="8" markerHeight="6" orient="auto"><path d="M 0 0 L 10 5 L 0 10 z"/></marker></defs></g></g></g><style xmlns="http://www.w3.org/1999/xhtml">.node &gt; .shape {stroke: #555555;stroke-width: 0.6px;fill: #FFFFFF;} path {stroke: #555;background-color: #555;stroke-width: 1px;} .node.state.NotYetStarted &gt; .shape,.node.state.Container &gt; .shape {stroke-dasharray: 5 2;} .node.state.Failed &gt; .shape,rect.legend.Failed {fill: #DE322F;} .node.state.CaughtError &gt; .shape,rect.legend.CaughtError {fill: #FFA500;} .node.state.Succeeded &gt; .shape,rect.legend.Succeeded {fill: #2BD62E;} .node.state.InProgress &gt; .shape,rect.legend.InProgress {fill: #53c9ed;} .node.state.Cancelled &gt; .shape,rect.legend.Cancelled {fill: #dddddd;} .node.anchor &gt; .shape {fill: #FFDA75;} .node.state.hovered:not(.selected):not(.NotYetStarted) &gt; .shape,.node.selected &gt; .shape {stroke: #555555;stroke-width: 2px;} .node.state.Container.Failed &gt; .shape {fill: #EE9592;} .node.state.Container.CaughtError &gt; .shape {fill: #FFD27F;} .node.state.Container.Succeeded &gt; .shape {fill: #91EA9A;} .node.state.Container.InProgress &gt; .shape {fill :#A9E4F7;} .node.state.Container.Cancelled &gt; .shape {fill: #EEEEEE;} marker {fill: #555555;} .node.anchor,.node.state.NotYetStarted {cursor: default;} .node.state {cursor: pointer;} tspan .label {font-weight: normal;font-size: 12px;text-shadow: none;} </style></svg>